<!-- Generated by IcoMoon.io -->
<svg version="1.1" xmlns="http://www.w3.org/2000/svg" width="1024" height="1024" viewBox="0 0 1024 1024">
<g id="icomoon-ignore">
</g>
<path fill="#000" d="M476.685 697.208c-15.161 6.134-33.529 11.048-55.103 14.742s-43.742 5.591-66.507 5.688c-64.623-0.678-114.699-19.056-150.229-55.136-35.528-36.081-53.54-85.8-54.034-149.158 1.346-69.571 20.981-121.501 58.904-155.791 37.924-34.292 86.060-51.399 144.411-51.322 26.148 0.214 49.383 2.58 69.713 7.097 20.326 4.519 37.625 9.903 51.897 16.153l30.403-116.172c-13.104-6.9-33.213-13.147-60.33-18.733-27.116-5.589-59.577-8.548-97.381-8.876-99.311 0.653-181.61 29.955-246.895 87.91s-99.129 140.653-101.534 248.094c0.109 91.195 28.17 166.249 84.186 225.159s139.348 89.388 249.991 91.436c38.873-0.376 72.522-3.425 100.944-9.145s49.245-11.855 62.467-18.408l-20.903-113.535z"></path>
<path fill="#000" d="M747.532 574.309l15.201-115.19h86.457l-14.251 115.19h-87.406zM709.529 829.624l23.751-171.001h86.457l-24.703 171.001h85.507l23.751-171.001h93.105v-84.313h-77.904l14.251-115.19h90.255v-84.313h-76.005l23.753-161.501h-84.555l-23.753 161.501h-87.404l23.751-161.501h-83.607l-24.703 161.501h-93.105v84.313h79.806l-15.201 115.19h-92.157v84.313h77.904l-24.7 171.001h85.506z"></path>
</svg>
