<!-- Generated by IcoMoon.io -->
<svg version="1.1" xmlns="http://www.w3.org/2000/svg" width="1024" height="1024" viewBox="0 0 1024 1024">
<g id="icomoon-ignore">
</g>
<path fill="#000" d="M475.592 0h167.441v775.042c-85.905 16.32-148.96 22.833-217.458 22.833-204.401-0.017-310.96-92.401-310.96-269.65 0-170.703 113.071-281.601 288.114-281.601 27.183 0 47.84 2.176 72.847 8.687zM475.592 390.13c-19.567-6.511-35.887-8.687-56.529-8.687-84.8 0-133.743 52.177-133.743 143.503 0 89.169 46.769 138.080 132.655 138.080 18.481 0 33.696-1.088 57.615-4.335z"></path>
<path fill="#000" d="M909.385 258.575v388.144c0 133.743-9.792 197.873-39.153 253.33-27.183 53.295-63.057 86.991-136.992 123.951l-155.471-73.937c73.935-34.799 109.807-65.231 132.64-112 23.919-47.825 31.537-103.279 31.537-248.975v-330.529zM741.938 0.881h167.439v171.791h-167.439z"></path>
</svg>
