<!-- Generated by IcoMoon.io -->
<svg version="1.1" xmlns="http://www.w3.org/2000/svg" width="1162" height="1024" viewBox="0 0 1162 1024">
<g id="icomoon-ignore">
</g>
<path fill="#5fcf3f" opacity="0.996078" d="M437.382 172.010l515.719 2.176-515.719 2.176v-4.352z"></path>
<path fill="#5fcf3f" opacity="0.996078" d="M398.213 185.067v0z"></path>
<path fill="#5fcf3f" opacity="0.996078" d="M385.157 193.77v0z"></path>
<path fill="#5fcf3f" opacity="0.996078" d="M367.749 215.53v0z"></path>
<path fill="#5fcf3f" opacity="0.996078" d="M350.341 272.107l2.176 419.973h-4.352l2.176-419.973z"></path>
<path fill="#5fcf3f" opacity="0.996078" d="M807.307 446.189v0z"></path>
<path fill="#5fcf3f" opacity="0.996078" d="M820.363 467.95l2.176 10.88h-4.352l2.176-10.88z"></path>
<path fill="#5fcf3f" opacity="0.996078" d="M550.535 602.863v0z"></path>
<path fill="#5fcf3f" opacity="0.996078" d="M354.693 716.017l2.176 10.88h-4.352l2.176-10.88z"></path>
<path fill="#5fcf3f" opacity="0.996078" d="M376.453 768.242v0z"></path>
<path fill="#5fcf3f" opacity="0.996078" d="M428.678 794.354l10.88 2.176-10.88 2.176v-4.352z"></path>
<path fill="#06d262" d="M950.924 176.362l2.176 467.847h-4.352l2.176-467.847z"></path>
<path fill="#06d262" d="M942.221 185.067l2.176 463.494h-4.352l2.176-463.494z"></path>
<path fill="#06d262" d="M559.239 328.684l6.528 2.176-10.88 6.528 4.352-8.704z"></path>
<path fill="#06d262" d="M585.351 328.684l23.937 10.88-6.528-2.176-17.409-4.352v-4.352z"></path>
<path fill="#06d262" d="M541.832 346.093l-4.352 13.056-2.176-6.528 6.528-6.528z"></path>
<path fill="#06d262" d="M676.745 372.205l93.57 50.049-6.528-2.176-82.689-39.168-4.352-8.704z"></path>
<path fill="#06d262" d="M802.954 437.486q24.372 10.445 23.937 45.697l-19.584 23.937 10.88-15.232 4.352-26.112-19.584-28.288z"></path>
<path fill="#06d262" d="M798.603 507.119l-4.352 8.704-26.112 13.056 4.352-8.704 26.112-13.056z"></path>
<path fill="#06d262" d="M742.026 537.582l-4.352 8.704-34.816 17.409 4.352-8.704 34.816-17.409z"></path>
<path fill="#06d262" d="M676.745 572.4l-4.352 8.704-43.521 21.76 4.352-8.704 43.521-21.76z"></path>
<path fill="#06d262" d="M541.832 598.512v0z"></path>
<path fill="#06d262" d="M611.465 607.216l-4.352 8.704-6.528-2.176 10.88-6.528z"></path>
<path fill="#06d262" d="M946.573 655.089l2.176 10.88h-4.352l2.176-10.88z"></path>
<path fill="#06d262" d="M937.868 663.793l6.528 15.232h-4.352l-2.176-15.232z"></path>
<path fill="#06d262" d="M933.516 676.849l6.528 15.232-13.056 4.352 4.352 8.704-26.112 21.76v-8.704l17.409-17.409 6.528-10.88 6.528 2.176-2.176-15.232z"></path>
<path fill="#06d262" d="M898.7 720.37v13.056l-10.88-6.528 10.88-6.528z"></path>
<path fill="#06d262" d="M859.531 733.426l10.88 2.176-10.88 2.176v-4.352z"></path>
<path fill="#06d262" d="M520.071 737.777l328.58 2.176-330.756 4.352 322.052 4.352-319.877 2.176-8.704-4.352-4.352 13.056-2.176-10.88 6.528-6.528 8.704-4.352z"></path>
<path fill="#06d262" d="M855.179 742.129l10.88 2.176-10.88 2.176v-4.352z"></path>
<path fill="#06d262" d="M498.311 750.833v13.056l-8.704-4.352-4.352 13.056-2.176-10.88 6.528-6.528 8.704-4.352z"></path>
<path fill="#06d262" d="M476.551 763.889v13.056q-13.056-6.528 0-13.056z"></path>
<path fill="#06d262" d="M463.495 772.594q13.056 6.528 0 13.056v-13.056z"></path>
<path fill="#06d262" d="M454.79 776.945v13.056l-10.88-6.528 10.88-6.528z"></path>
<path fill="#06d262" d="M446.086 790.003v0z"></path>
<path fill="#007f7f" opacity="0.00784314" d="M959.629 163.306l110.977 2.176-110.977 2.176v-4.352z"></path>
<path fill="#007f7f" opacity="0.00784314" d="M1077.135 163.306q44.826 12.186 67.456 45.697l4.352 8.704h-13.056l4.352-8.704-6.528 2.176-19.584-19.584-2.176-6.528-6.528 2.176-2.176-6.528-6.528 2.176 2.176-6.528-13.056 4.352v-4.352l6.528-2.176q-16.538-0.435-15.232-10.88z"></path>
<path fill="#007f7f" opacity="0.00784314" d="M1064.078 172.010l10.88 2.176-10.88 2.176v-4.352z"></path>
<path fill="#007f7f" opacity="0.00784314" d="M1151.119 224.235l10.88 23.937v443.91h-4.352l-2.176-446.086-4.352 13.056-2.176-10.88 4.352-13.056h-8.704l6.528-10.88z"></path>
<path fill="#007f7f" opacity="0.00784314" d="M1159.824 702.961l2.176 32.64q-10.88 39.168-41.344 58.753l-30.465 13.056-15.232-6.528 10.88-2.176 13.056 4.352v-4.352l-6.528-2.176 6.528-2.176 6.528 2.176 2.176-6.528 6.528 2.176 23.937-28.288 6.528 2.176-4.352-8.704h8.704l-4.352-8.704h8.704l-4.352-17.409h4.352l2.176 6.528 4.352-34.816z"></path>
<path fill="#007f7f" opacity="0.00784314" d="M450.439 798.706l267.652 2.176-267.652 2.176v-4.352z"></path>
<path fill="#007f7f" opacity="0.00784314" d="M724.618 803.059v8.704l8.704-4.352 8.704 13.056 6.528-2.176 2.176 6.528q5.658-9.574 10.88 2.176l2.176 6.528 6.528-2.176 2.176 6.528q5.658-9.574 10.88 2.176l2.176 6.528 6.528-2.176-2.176 6.528 8.704-4.352 8.704 13.056 6.528-2.176-2.176 6.528 8.704-4.352 4.352 13.056 8.704-4.352v8.704l8.704-4.352 8.704 13.056 6.528-2.176-2.176 6.528 8.704-4.352 8.704 13.056 6.528-2.176-2.176 6.528 8.704-4.352 8.704 13.056 6.528-2.176-2.176 6.528 8.704-4.352 8.704 13.056 6.528-2.176-2.176 6.528 8.704-4.352 8.704 13.056 6.528-2.176-2.176 6.528 8.704-4.352 8.704 13.056 6.528-2.176-2.176 6.528 8.704-4.352 4.352 13.056 8.704-4.352v8.704l8.704-4.352 8.704 13.056h8.704l10.88 6.528-2.176 6.528 8.704-4.352 15.232 10.88 2.176 6.528h8.704l10.88 6.528-2.176 6.528q23.501 8.269 19.584-6.528l6.528-6.528 10.88 2.176q-5.223 20.454-36.993 15.232l-343.812-208.898-263.3-2.176 263.3-2.176 4.352-4.352z"></path>
<path fill="#007f7f" opacity="0.00784314" d="M1044.494 803.059l13.056 2.176-8.704 4.352 8.704 4.352-4.352 8.704 4.352 13.056h-4.352l-2.176-10.88-4.352 8.704-2.176-6.528 4.352-13.056h-4.352l-2.176 6.528-2.176-6.528 4.352-10.88z"></path>
<path fill="#007f7f" opacity="0.00784314" d="M1064.078 807.41l19.584 2.176-19.584 2.176v-4.352z"></path>
<path fill="#007f7f" opacity="0.00784314" d="M1059.726 842.227l45.697 154.498h-4.352l-2.176-15.232-4.352 17.409-2.176-15.232 4.352-13.056h-4.352l-2.176 6.528-2.176-6.528 4.352-13.056h-4.352l-2.176 6.528-2.176-6.528 4.352-17.409-6.528-15.232-4.352 8.704-2.176-6.528 4.352-13.056h-4.352l-2.176 6.528-2.176-6.528 4.352-13.056h-4.352l-2.176 6.528-2.176-6.528 4.352-17.409h-4.352l-2.176 6.528-2.176-6.528 4.352-13.056h-4.352l-2.176 6.528-2.176-6.528 4.352-13.056h-4.352l-2.176 6.528-2.176-6.528 6.528-15.232z"></path>
<path fill="#ffce00" opacity="0.247059" d="M106.625 2.28h752.906q45.697 10.88 71.809 41.344l21.76 34.816h-4.352l-2.176-6.528-4.352 8.704-6.528-10.88 4.352-8.704-6.528 2.176-30.465-30.465-23.937-10.88 8.704-4.352-10.88-2.176-8.704 4.352v-4.352l6.528-2.176-10.88-2.176-4.352 4.352h-752.906l-17.409-4.352v4.352l10.88 2.176-36.993 15.232-6.528-2.176-23.937 28.288-10.88-2.176q26.983-42.651 84.865-54.4zM108.802 6.632v4.352h752.906l-752.906-4.352z"></path>
<path fill="#ffce00" opacity="0.247059" d="M19.585 63.209l10.88 2.176-10.88 19.584-4.352-8.704-2.176 10.88 4.352 13.056h-4.352l-2.176-10.88-6.528 15.232v565.768h4.352l2.176-563.591 2.176 563.591 4.352 13.056-4.352 13.056h4.352l2.176-6.528q9.574 29.594 34.816 43.521l23.937 10.88-8.704 4.352 10.88 2.176 13.056-4.352v4.352l-10.88 2.176 15.232 2.176 4.352-4.352h39.168q12.186 5.658 2.176 10.88l-2.176 10.88-4.352-8.704-6.528 23.937 4.352 13.056-10.88 28.288-4.352-13.056-4.352 13.056-2.176-10.88 17.409-54.4q-67.456 1.305-100.098-36.993-22.631-20.89-30.465-56.577v-565.768l19.584-41.344zM13.057 672.496l-4.352 13.056h4.352v-13.056zM104.45 755.186v4.352h30.465l-30.465-4.352zM130.562 790.003l-4.352 13.056h4.352v-13.056zM126.21 803.059l-4.352 13.056h4.352v-13.056z"></path>
<path fill="#ffce00" opacity="0.247059" d="M950.924 98.025l2.176 15.232h-4.352l2.176-15.232z"></path>
<path fill="#ffce00" opacity="0.247059" d="M959.629 98.025l2.176 19.584h-4.352l2.176-19.584z"></path>
<path fill="#ffce00" opacity="0.247059" d="M963.981 124.137l2.176 36.993h-4.352l2.176-36.993z"></path>
<path fill="#ffce00" opacity="0.247059" d="M955.277 128.49l2.176 41.344h-4.352l2.176-41.344z"></path>
<path fill="#ffce00" opacity="0.247059" d="M437.382 798.706l2.176 10.88-6.528 6.528-304.644 182.786q-11.751 12.186-39.168 8.704-26.112-6.528-19.584-45.697l41.344-128.386 6.528 23.937-6.528 15.232-4.352-13.056-6.528 28.288 4.352 8.704h-4.352l-2.176-6.528-2.176 10.88 4.352 13.056-6.528 15.232-4.352-13.056-6.528 28.288 4.352 13.056-6.528 15.232-4.352-13.056-2.176 28.288h4.352l2.176-10.88 8.704 17.409 6.528 2.176-2.176 6.528 19.584-2.176-8.704-4.352 6.528-2.176 6.528 2.176 6.528-10.88 8.704-4.352 6.528 2.176 6.528-10.88 8.704-4.352 6.528 2.176 6.528-10.88 8.704-4.352 6.528 2.176 6.528-10.88 8.704-4.352 6.528 2.176 6.528-10.88 8.704-4.352 6.528 2.176 6.528-10.88 8.704-4.352 6.528 2.176 6.528-10.88 8.704-4.352 6.528 2.176 6.528-10.88 8.704-4.352 6.528 2.176 6.528-10.88 8.704-4.352 6.528 2.176 6.528-10.88 8.704-4.352 6.528 2.176 6.528-10.88 8.704-4.352 6.528 2.176 6.528-10.88 8.704-4.352 6.528 2.176 6.528-10.88 8.704-4.352 6.528 2.176 6.528-10.88 30.465-17.409zM113.153 846.579l-4.352 13.056h4.352v-13.056zM95.746 903.156l-4.352 13.056h4.352v-13.056zM82.69 946.676l-4.352 13.056h4.352v-13.056z"></path>
<path fill="#fecc00" opacity="0.996078" d="M102.274 15.336l15.232 2.176-15.232 2.176v-4.352z"></path>
<path fill="#fecc00" opacity="0.996078" d="M850.828 15.336l15.232 2.176-17.409 4.352 19.584 2.176 10.88-4.352 2.176 8.704 6.528-2.176 2.176 6.528 6.528-2.176 2.176 6.528q5.223-9.574 10.88 2.176l15.232 23.937q5.223-9.574 10.88 2.176l-4.352 8.704h8.704l-4.352 13.056h4.352l2.176-6.528 2.176 6.528-6.528 15.232q-6.963-43.086-39.168-60.928l-52.225-17.409h-722.441l-43.521 8.704-41.344 32.64-17.409 56.577v535.303l13.056 43.521 23.937 23.937q35.687 18.714 89.217 19.584l-50.049 6.528v-4.352l15.232-2.176-19.584-2.176-15.232 4.352-2.176-8.704-6.528 2.176-2.176-6.528-6.528 2.176-2.176-6.528q-5.223 10.010-10.88-2.176l-10.88-19.584q-5.223 10.010-10.88-2.176l4.352-8.704h-8.704l4.352-13.056h-4.352l-2.176 6.528-2.176-6.528 4.352-21.76h-4.352l-2.176 10.88-2.176-10.88 4.352-4.352v-535.303q10.010-5.223 4.352-26.112l-4.352-8.704h4.352l2.176 6.528 2.176-10.88-2.176-6.528 6.528 2.176-4.352-8.704h8.704l-4.352-8.704 17.409-10.88 10.88-17.409 6.528 2.176 2.176-6.528 6.528 2.176q-3.046-9.574 6.528-6.528l13.056 4.352v-4.352l-6.528-2.176 6.528-2.176q5.223 10.010 26.112 4.352l4.352-4.352h722.441l4.352-4.352z"></path>
<path fill="#fecc00" opacity="0.996078" d="M15.232 102.377l2.176 10.88h-4.352l2.176-10.88z"></path>
<path fill="#fecc00" opacity="0.996078" d="M942.221 106.73l2.176 63.105h-4.352l2.176-63.105z"></path>
<path fill="#fecc00" opacity="0.996078" d="M950.924 115.433l2.176 54.4h-4.352l2.176-54.4z"></path>
<path fill="#fecc00" opacity="0.996078" d="M433.030 163.306l498.31 2.176-498.31 2.176v-4.352z"></path>
<path fill="#fecc00" opacity="0.996078" d="M406.918 172.010l10.88 6.528-6.528 2.176-4.352-8.704z"></path>
<path fill="#fecc00" opacity="0.996078" d="M398.213 176.362l4.352 8.704-6.528-2.176-6.528 10.88-4.352-4.352-19.584 19.584 2.176 6.528-10.88-2.176 41.344-36.993z"></path>
<path fill="#fecc00" opacity="0.996078" d="M354.693 219.883v0z"></path>
<path fill="#fecc00" opacity="0.996078" d="M345.988 237.291l6.528 32.64h-4.352l-2.176-32.64z"></path>
<path fill="#fecc00" opacity="0.996078" d="M341.637 259.051l2.176 450.438h-4.352l2.176-450.438z"></path>
<path fill="#fecc00" opacity="0.996078" d="M350.341 694.257l2.176 23.937-6.528 15.232-2.176-10.88 6.528-28.288z"></path>
<path fill="#fecc00" opacity="0.996078" d="M354.693 729.073l2.176 6.528-6.528 10.88-2.176-6.528 6.528-10.88z"></path>
<path fill="#fecc00" opacity="0.996078" d="M154.499 750.833l2.176 15.232-45.697 141.442-6.528-19.584h4.352l2.176 6.528 2.176-10.88-4.352-8.704h4.352l2.176 6.528 2.176-10.88-4.352-8.704h4.352l2.176 6.528 2.176-15.232-4.352-8.704h4.352l2.176 6.528 2.176-10.88-4.352-8.704h4.352l2.176 6.528 2.176-10.88-4.352-8.704h4.352l2.176 6.528 6.528-28.288-4.352-8.704h4.352l2.176 6.528 2.176-10.88-4.352-8.704h4.352l2.176 6.528 2.176-10.88-4.352-8.704h4.352l2.176 6.528 4.352-17.409z"></path>
<path fill="#fecc00" opacity="0.996078" d="M354.693 750.833l10.88 2.176-4.352 8.704 13.056 4.352q-12.186 7.833 6.528 15.232 5.658-9.574 10.88 2.176l2.176 6.528 6.528-2.176-2.176 6.528 8.704-4.352v8.704l19.584-4.352-2.176 13.056-6.528-2.176-6.528 10.88-6.528-2.176-6.528 10.88-8.704 4.352-6.528-2.176-6.528 10.88-8.704 4.352-6.528-2.176-6.528 10.88-8.704 4.352-6.528-2.176-6.528 10.88-8.704 4.352-6.528-2.176-6.528 10.88-8.704 4.352-6.528-2.176-6.528 10.88-8.704 4.352-6.528-2.176-6.528 10.88-8.704 4.352-6.528-2.176-6.528 10.88-8.704 4.352-6.528-2.176-6.528 10.88-8.704 4.352-6.528-2.176-6.528 10.88-8.704 4.352-6.528-2.176-6.528 10.88-8.704-4.352v8.704l-6.528-2.176-6.528 10.88-8.704 4.352-6.528-2.176-6.528 10.88-8.704 4.352-6.528-2.176-6.528 10.88-13.056-4.352v8.704q-9.574 3.482-6.528-6.528l-13.056-4.352 8.704-34.816-4.352-8.704h4.352l2.176 6.528 2.176-10.88-4.352-8.704h4.352l2.176 6.528 2.176-10.88-4.352-8.704h4.352l2.176 6.528 4.352-13.056 2.176 10.88-17.409 56.577 15.232 6.528 302.468-180.61-52.225-43.521-2.176-10.88z"></path>
<path fill="#06d362" d="M428.678 176.362h520.071v476.55q-8.704 52.225-45.697 76.161l-52.225 17.409h-330.756l-78.337 47.872h-21.76l-45.697-28.288-13.056-21.76-8.704-34.816v-452.614q7.833-42.215 36.993-63.105l39.168-17.409zM944.396 185.067l-4.352 465.67h4.352v-465.67zM561.416 328.684v8.704l-4.352-4.352-4.352 8.704-8.704 4.352v8.704h-8.704l4.352 8.704v221.954l-4.352 8.704 8.704-4.352v17.409q8.704 17.409 17.409 4.352v8.704l13.056-4.352 21.76 4.352 4.352-8.704 8.704 4.352-4.352-4.352h8.704v-4.352h8.704v-4.352h8.704l8.704-4.352v-8.704l8.704 4.352v-8.704l8.704 4.352v-8.704l8.704 4.352v-8.704l8.704 4.352-4.352-4.352h8.704v-4.352h8.704v-4.352h8.704v-4.352h8.704l8.704-4.352v-8.704l8.704 4.352v-8.704l8.704 4.352v-8.704l8.704 4.352-4.352-4.352h8.704v-4.352h8.704v-4.352h8.704v-4.352h8.704l8.704-4.352v-8.704l8.704 4.352v-8.704l8.704 4.352-4.352-4.352h8.704v-4.352q13.056-21.76 21.76-13.056l-4.352-8.704h8.704v-17.409h-8.704l4.352-8.704h-4.352v-4.352q-8.704-21.76-13.056-8.704l-8.704-8.704h-4.352l-4.352-4.352h-4.352l-4.352-4.352h-4.352l-4.352-4.352h-4.352v-8.704l-8.704 4.352v-8.704l-8.704 4.352v-8.704l-8.704 4.352v-8.704l-8.704 4.352v-8.704l-8.704 4.352v-8.704l-8.704 4.352v-8.704l-8.704 4.352v-8.704l-8.704 4.352v-8.704l-8.704 4.352v-4.352l-4.352-4.352h-8.704l-4.352-4.352h-4.352l-4.352-4.352h-4.352l-4.352-4.352h-4.352l-4.352-4.352h-4.352l-4.352-4.352h-4.352l-4.352-4.352h-4.352l-4.352-4.352h-4.352l-4.352-4.352h-4.352v-8.704l-8.704 4.352v-8.704l-13.056 4.352-21.76-4.352zM861.707 733.426v4.352h8.704l-8.704-4.352zM522.247 737.777v4.352h326.405l-326.405-4.352z"></path>
<path fill="#fcfefd" d="M567.944 333.037l30.465 4.352 200.195 104.449 19.584 19.584q6.528 34.816-15.232 41.344l-204.547 108.802-30.465 4.352-23.937-19.584-4.352-13.056v-221.954l15.232-23.937 13.056-4.352z"></path>
<path fill="#08a" opacity="0.960784" d="M953.101 172.010h106.626l21.76 4.352q36.558 9.574 54.4 36.993l17.409 47.872v465.67q-8.704 43.521-41.344 63.105-29.159 16.538-76.161 15.232l47.872 143.618 8.704 30.465v21.76q-3.046 14.362-23.937 10.88l-352.517-213.251-272.003-2.176 71.809-45.697h322.052l43.521-8.704q32.205-11.316 50.049-36.993l21.76-60.928v-472.198z"></path>
<path fill="#fc0" d="M119.682 15.336h726.794l28.288 10.88-2.176 6.528 26.112 8.704v-8.704q11.751 5.658 2.176 10.88l19.584 19.584 2.176-6.528-10.88-15.232q27.853 22.195 36.993 63.105v65.281h-4.352l-2.176-63.105-2.176 65.281h-511.366l-30.465 13.056-8.704-4.352 2.176 6.528-26.112 26.112-17.409 39.168v465.67q8.269 43.956 39.168 65.281-9.574 5.658 2.176 10.88l6.528-2.176-2.176-6.528 23.937 10.88-13.056 4.352q16.538 7.833 2.176 15.232v-8.704l-19.584 10.88q10.010 5.658-2.176 10.88v-8.704l-19.584 10.88q10.010 5.658-2.176 10.88v-8.704l-19.584 10.88q10.010 5.658-2.176 10.88v-8.704l-19.584 10.88q10.010 5.658-2.176 10.88v-8.704l-19.584 10.88q10.010 5.658-2.176 10.88v-8.704l-19.584 10.88q10.010 5.658-2.176 10.88v-8.704l-19.584 10.88q10.010 5.223-2.176 10.88v-8.704l-19.584 10.88q9.574 5.223-2.176 10.88v-8.704l-19.584 10.88q10.010 5.223-2.176 10.88v-8.704l-19.584 10.88q10.010 5.658-2.176 10.88v-8.704l-10.88 6.528q10.010 5.658-2.176 10.88l-8.704 4.352v-8.704l-19.584 10.88q10.010 5.658-2.176 10.88v-8.704l-19.584 10.88q10.010 5.658-2.176 10.88v-8.704l-26.112 8.704-8.704-17.409-2.176 15.232 6.528 10.88q-15.232-4.352-10.88-28.288 40.039-102.273 65.281-215.426-40.039 4.352-65.281-10.88l8.704-4.352-32.64-10.88v8.704q-11.751-5.223-2.176-10.88l-15.232-15.232-2.176 6.528 6.528 10.88-23.937-32.64-8.704-34.816v-539.655l8.704-34.816 19.584-28.288q7.833 12.186 15.232-6.528-11.751-7.398 6.528-15.232v8.704l32.64-10.88-13.056-4.352 36.993-10.88zM126.21 19.688v4.352h722.441l-722.441-4.352zM100.097 24.040v4.352h21.76l-21.76-4.352zM853.003 24.040v4.352h17.409l-17.409-4.352zM935.693 76.265l-4.352 13.056h4.352v-13.056zM30.464 80.616l-4.352 13.056h4.352v-13.056zM940.044 89.321l-4.352 13.056h4.352v-13.056zM26.113 93.673l-4.352 26.112h4.352v-26.112zM21.76 119.786l-4.352 539.655h4.352v-539.655zM435.206 163.306v4.352h496.135l-496.135-4.352zM348.165 237.291l-4.352 13.056h4.352v-13.056zM343.813 259.051l-4.352 452.614h4.352v-452.614zM26.113 659.44l-4.352 21.76h4.352v-21.76zM30.464 681.201l-4.352 13.056h4.352v-13.056zM348.165 720.37l-4.352 13.056h4.352v-13.056zM95.746 737.777v4.352h17.409l-17.409-4.352zM117.506 742.129v4.352h30.465l-30.465-4.352zM156.674 750.833l-4.352 17.409h4.352v-17.409zM152.322 768.242l-4.352 13.056h4.352v-13.056zM147.971 781.298l-4.352 13.056h4.352v-13.056zM143.618 794.354l-4.352 17.409h4.352v-17.409zM139.266 811.763l-4.352 13.056h4.352v-13.056zM134.914 824.819l-4.352 13.056h4.352v-13.056zM130.562 837.875l-4.352 13.056h4.352v-13.056zM126.21 850.931l-4.352 17.409h4.352v-17.409zM121.858 868.34l-4.352 13.056h4.352v-13.056zM117.506 881.396l-4.352 13.056h4.352v-13.056zM113.153 894.452l-4.352 13.056h4.352v-13.056zM108.802 911.859l-4.352 13.056h4.352v-13.056zM104.45 924.915l-4.352 13.056h4.352v-13.056zM100.097 937.972l-4.352 13.056h4.352v-13.056zM95.746 951.028l-4.352 17.409h4.352v-17.409z"></path>
</svg>
