<!-- Generated by IcoMoon.io -->
<svg version="1.1" xmlns="http://www.w3.org/2000/svg" width="1196" height="1024" viewBox="0 0 1196 1024">
<g id="icomoon-ignore">
    <line stroke-width="1" x1="16" y1="0" x2="16" y2="1024" stroke="#449FDB" opacity="0.3"></line>
    <line stroke-width="1" x1="32" y1="0" x2="32" y2="1024" stroke="#449FDB" opacity="1"></line>
    <line stroke-width="1" x1="48" y1="0" x2="48" y2="1024" stroke="#449FDB" opacity="0.3"></line>
    <line stroke-width="1" x1="64" y1="0" x2="64" y2="1024" stroke="#449FDB" opacity="1"></line>
    <line stroke-width="1" x1="80" y1="0" x2="80" y2="1024" stroke="#449FDB" opacity="0.3"></line>
    <line stroke-width="1" x1="96" y1="0" x2="96" y2="1024" stroke="#449FDB" opacity="1"></line>
    <line stroke-width="1" x1="112" y1="0" x2="112" y2="1024" stroke="#449FDB" opacity="0.3"></line>
    <line stroke-width="1" x1="128" y1="0" x2="128" y2="1024" stroke="#449FDB" opacity="1"></line>
    <line stroke-width="1" x1="144" y1="0" x2="144" y2="1024" stroke="#449FDB" opacity="0.3"></line>
    <line stroke-width="1" x1="160" y1="0" x2="160" y2="1024" stroke="#449FDB" opacity="1"></line>
    <line stroke-width="1" x1="176" y1="0" x2="176" y2="1024" stroke="#449FDB" opacity="0.3"></line>
    <line stroke-width="1" x1="192" y1="0" x2="192" y2="1024" stroke="#449FDB" opacity="1"></line>
    <line stroke-width="1" x1="208" y1="0" x2="208" y2="1024" stroke="#449FDB" opacity="0.3"></line>
    <line stroke-width="1" x1="224" y1="0" x2="224" y2="1024" stroke="#449FDB" opacity="1"></line>
    <line stroke-width="1" x1="240" y1="0" x2="240" y2="1024" stroke="#449FDB" opacity="0.3"></line>
    <line stroke-width="1" x1="256" y1="0" x2="256" y2="1024" stroke="#449FDB" opacity="1"></line>
    <line stroke-width="1" x1="272" y1="0" x2="272" y2="1024" stroke="#449FDB" opacity="0.3"></line>
    <line stroke-width="1" x1="288" y1="0" x2="288" y2="1024" stroke="#449FDB" opacity="1"></line>
    <line stroke-width="1" x1="304" y1="0" x2="304" y2="1024" stroke="#449FDB" opacity="0.3"></line>
    <line stroke-width="1" x1="320" y1="0" x2="320" y2="1024" stroke="#449FDB" opacity="1"></line>
    <line stroke-width="1" x1="336" y1="0" x2="336" y2="1024" stroke="#449FDB" opacity="0.3"></line>
    <line stroke-width="1" x1="352" y1="0" x2="352" y2="1024" stroke="#449FDB" opacity="1"></line>
    <line stroke-width="1" x1="368" y1="0" x2="368" y2="1024" stroke="#449FDB" opacity="0.3"></line>
    <line stroke-width="1" x1="384" y1="0" x2="384" y2="1024" stroke="#449FDB" opacity="1"></line>
    <line stroke-width="1" x1="400" y1="0" x2="400" y2="1024" stroke="#449FDB" opacity="0.3"></line>
    <line stroke-width="1" x1="416" y1="0" x2="416" y2="1024" stroke="#449FDB" opacity="1"></line>
    <line stroke-width="1" x1="432" y1="0" x2="432" y2="1024" stroke="#449FDB" opacity="0.3"></line>
    <line stroke-width="1" x1="448" y1="0" x2="448" y2="1024" stroke="#449FDB" opacity="1"></line>
    <line stroke-width="1" x1="464" y1="0" x2="464" y2="1024" stroke="#449FDB" opacity="0.3"></line>
    <line stroke-width="1" x1="480" y1="0" x2="480" y2="1024" stroke="#449FDB" opacity="1"></line>
    <line stroke-width="1" x1="496" y1="0" x2="496" y2="1024" stroke="#449FDB" opacity="0.3"></line>
    <line stroke-width="1" x1="512" y1="0" x2="512" y2="1024" stroke="#449FDB" opacity="1"></line>
    <line stroke-width="1" x1="528" y1="0" x2="528" y2="1024" stroke="#449FDB" opacity="0.3"></line>
    <line stroke-width="1" x1="544" y1="0" x2="544" y2="1024" stroke="#449FDB" opacity="1"></line>
    <line stroke-width="1" x1="560" y1="0" x2="560" y2="1024" stroke="#449FDB" opacity="0.3"></line>
    <line stroke-width="1" x1="576" y1="0" x2="576" y2="1024" stroke="#449FDB" opacity="1"></line>
    <line stroke-width="1" x1="592" y1="0" x2="592" y2="1024" stroke="#449FDB" opacity="0.3"></line>
    <line stroke-width="1" x1="608" y1="0" x2="608" y2="1024" stroke="#449FDB" opacity="1"></line>
    <line stroke-width="1" x1="624" y1="0" x2="624" y2="1024" stroke="#449FDB" opacity="0.3"></line>
    <line stroke-width="1" x1="640" y1="0" x2="640" y2="1024" stroke="#449FDB" opacity="1"></line>
    <line stroke-width="1" x1="656" y1="0" x2="656" y2="1024" stroke="#449FDB" opacity="0.3"></line>
    <line stroke-width="1" x1="672" y1="0" x2="672" y2="1024" stroke="#449FDB" opacity="1"></line>
    <line stroke-width="1" x1="688" y1="0" x2="688" y2="1024" stroke="#449FDB" opacity="0.3"></line>
    <line stroke-width="1" x1="704" y1="0" x2="704" y2="1024" stroke="#449FDB" opacity="1"></line>
    <line stroke-width="1" x1="720" y1="0" x2="720" y2="1024" stroke="#449FDB" opacity="0.3"></line>
    <line stroke-width="1" x1="736" y1="0" x2="736" y2="1024" stroke="#449FDB" opacity="1"></line>
    <line stroke-width="1" x1="752" y1="0" x2="752" y2="1024" stroke="#449FDB" opacity="0.3"></line>
    <line stroke-width="1" x1="768" y1="0" x2="768" y2="1024" stroke="#449FDB" opacity="1"></line>
    <line stroke-width="1" x1="784" y1="0" x2="784" y2="1024" stroke="#449FDB" opacity="0.3"></line>
    <line stroke-width="1" x1="800" y1="0" x2="800" y2="1024" stroke="#449FDB" opacity="1"></line>
    <line stroke-width="1" x1="816" y1="0" x2="816" y2="1024" stroke="#449FDB" opacity="0.3"></line>
    <line stroke-width="1" x1="832" y1="0" x2="832" y2="1024" stroke="#449FDB" opacity="1"></line>
    <line stroke-width="1" x1="848" y1="0" x2="848" y2="1024" stroke="#449FDB" opacity="0.3"></line>
    <line stroke-width="1" x1="864" y1="0" x2="864" y2="1024" stroke="#449FDB" opacity="1"></line>
    <line stroke-width="1" x1="880" y1="0" x2="880" y2="1024" stroke="#449FDB" opacity="0.3"></line>
    <line stroke-width="1" x1="896" y1="0" x2="896" y2="1024" stroke="#449FDB" opacity="1"></line>
    <line stroke-width="1" x1="912" y1="0" x2="912" y2="1024" stroke="#449FDB" opacity="0.3"></line>
    <line stroke-width="1" x1="928" y1="0" x2="928" y2="1024" stroke="#449FDB" opacity="1"></line>
    <line stroke-width="1" x1="944" y1="0" x2="944" y2="1024" stroke="#449FDB" opacity="0.3"></line>
    <line stroke-width="1" x1="960" y1="0" x2="960" y2="1024" stroke="#449FDB" opacity="1"></line>
    <line stroke-width="1" x1="976" y1="0" x2="976" y2="1024" stroke="#449FDB" opacity="0.3"></line>
    <line stroke-width="1" x1="992" y1="0" x2="992" y2="1024" stroke="#449FDB" opacity="1"></line>
    <line stroke-width="1" x1="1008" y1="0" x2="1008" y2="1024" stroke="#449FDB" opacity="0.3"></line>
    <line stroke-width="1" x1="1024" y1="0" x2="1024" y2="1024" stroke="#449FDB" opacity="1"></line>
    <line stroke-width="1" x1="1040" y1="0" x2="1040" y2="1024" stroke="#449FDB" opacity="0.3"></line>
    <line stroke-width="1" x1="1056" y1="0" x2="1056" y2="1024" stroke="#449FDB" opacity="1"></line>
    <line stroke-width="1" x1="1072" y1="0" x2="1072" y2="1024" stroke="#449FDB" opacity="0.3"></line>
    <line stroke-width="1" x1="1088" y1="0" x2="1088" y2="1024" stroke="#449FDB" opacity="1"></line>
    <line stroke-width="1" x1="1104" y1="0" x2="1104" y2="1024" stroke="#449FDB" opacity="0.3"></line>
    <line stroke-width="1" x1="1120" y1="0" x2="1120" y2="1024" stroke="#449FDB" opacity="1"></line>
    <line stroke-width="1" x1="1136" y1="0" x2="1136" y2="1024" stroke="#449FDB" opacity="0.3"></line>
    <line stroke-width="1" x1="1152" y1="0" x2="1152" y2="1024" stroke="#449FDB" opacity="1"></line>
    <line stroke-width="1" x1="1168" y1="0" x2="1168" y2="1024" stroke="#449FDB" opacity="0.3"></line>
    <line stroke-width="1" x1="1184" y1="0" x2="1184" y2="1024" stroke="#449FDB" opacity="1"></line>
    <line stroke-width="1" x1="0" y1="16" x2="1196" y2="16" stroke="#449FDB" opacity="0.3"></line>
    <line stroke-width="1" x1="0" y1="32" x2="1196" y2="32" stroke="#449FDB" opacity="1"></line>
    <line stroke-width="1" x1="0" y1="48" x2="1196" y2="48" stroke="#449FDB" opacity="0.3"></line>
    <line stroke-width="1" x1="0" y1="64" x2="1196" y2="64" stroke="#449FDB" opacity="1"></line>
    <line stroke-width="1" x1="0" y1="80" x2="1196" y2="80" stroke="#449FDB" opacity="0.3"></line>
    <line stroke-width="1" x1="0" y1="96" x2="1196" y2="96" stroke="#449FDB" opacity="1"></line>
    <line stroke-width="1" x1="0" y1="112" x2="1196" y2="112" stroke="#449FDB" opacity="0.3"></line>
    <line stroke-width="1" x1="0" y1="128" x2="1196" y2="128" stroke="#449FDB" opacity="1"></line>
    <line stroke-width="1" x1="0" y1="144" x2="1196" y2="144" stroke="#449FDB" opacity="0.3"></line>
    <line stroke-width="1" x1="0" y1="160" x2="1196" y2="160" stroke="#449FDB" opacity="1"></line>
    <line stroke-width="1" x1="0" y1="176" x2="1196" y2="176" stroke="#449FDB" opacity="0.3"></line>
    <line stroke-width="1" x1="0" y1="192" x2="1196" y2="192" stroke="#449FDB" opacity="1"></line>
    <line stroke-width="1" x1="0" y1="208" x2="1196" y2="208" stroke="#449FDB" opacity="0.3"></line>
    <line stroke-width="1" x1="0" y1="224" x2="1196" y2="224" stroke="#449FDB" opacity="1"></line>
    <line stroke-width="1" x1="0" y1="240" x2="1196" y2="240" stroke="#449FDB" opacity="0.3"></line>
    <line stroke-width="1" x1="0" y1="256" x2="1196" y2="256" stroke="#449FDB" opacity="1"></line>
    <line stroke-width="1" x1="0" y1="272" x2="1196" y2="272" stroke="#449FDB" opacity="0.3"></line>
    <line stroke-width="1" x1="0" y1="288" x2="1196" y2="288" stroke="#449FDB" opacity="1"></line>
    <line stroke-width="1" x1="0" y1="304" x2="1196" y2="304" stroke="#449FDB" opacity="0.3"></line>
    <line stroke-width="1" x1="0" y1="320" x2="1196" y2="320" stroke="#449FDB" opacity="1"></line>
    <line stroke-width="1" x1="0" y1="336" x2="1196" y2="336" stroke="#449FDB" opacity="0.3"></line>
    <line stroke-width="1" x1="0" y1="352" x2="1196" y2="352" stroke="#449FDB" opacity="1"></line>
    <line stroke-width="1" x1="0" y1="368" x2="1196" y2="368" stroke="#449FDB" opacity="0.3"></line>
    <line stroke-width="1" x1="0" y1="384" x2="1196" y2="384" stroke="#449FDB" opacity="1"></line>
    <line stroke-width="1" x1="0" y1="400" x2="1196" y2="400" stroke="#449FDB" opacity="0.3"></line>
    <line stroke-width="1" x1="0" y1="416" x2="1196" y2="416" stroke="#449FDB" opacity="1"></line>
    <line stroke-width="1" x1="0" y1="432" x2="1196" y2="432" stroke="#449FDB" opacity="0.3"></line>
    <line stroke-width="1" x1="0" y1="448" x2="1196" y2="448" stroke="#449FDB" opacity="1"></line>
    <line stroke-width="1" x1="0" y1="464" x2="1196" y2="464" stroke="#449FDB" opacity="0.3"></line>
    <line stroke-width="1" x1="0" y1="480" x2="1196" y2="480" stroke="#449FDB" opacity="1"></line>
    <line stroke-width="1" x1="0" y1="496" x2="1196" y2="496" stroke="#449FDB" opacity="0.3"></line>
    <line stroke-width="1" x1="0" y1="512" x2="1196" y2="512" stroke="#449FDB" opacity="1"></line>
    <line stroke-width="1" x1="0" y1="528" x2="1196" y2="528" stroke="#449FDB" opacity="0.3"></line>
    <line stroke-width="1" x1="0" y1="544" x2="1196" y2="544" stroke="#449FDB" opacity="1"></line>
    <line stroke-width="1" x1="0" y1="560" x2="1196" y2="560" stroke="#449FDB" opacity="0.3"></line>
    <line stroke-width="1" x1="0" y1="576" x2="1196" y2="576" stroke="#449FDB" opacity="1"></line>
    <line stroke-width="1" x1="0" y1="592" x2="1196" y2="592" stroke="#449FDB" opacity="0.3"></line>
    <line stroke-width="1" x1="0" y1="608" x2="1196" y2="608" stroke="#449FDB" opacity="1"></line>
    <line stroke-width="1" x1="0" y1="624" x2="1196" y2="624" stroke="#449FDB" opacity="0.3"></line>
    <line stroke-width="1" x1="0" y1="640" x2="1196" y2="640" stroke="#449FDB" opacity="1"></line>
    <line stroke-width="1" x1="0" y1="656" x2="1196" y2="656" stroke="#449FDB" opacity="0.3"></line>
    <line stroke-width="1" x1="0" y1="672" x2="1196" y2="672" stroke="#449FDB" opacity="1"></line>
    <line stroke-width="1" x1="0" y1="688" x2="1196" y2="688" stroke="#449FDB" opacity="0.3"></line>
    <line stroke-width="1" x1="0" y1="704" x2="1196" y2="704" stroke="#449FDB" opacity="1"></line>
    <line stroke-width="1" x1="0" y1="720" x2="1196" y2="720" stroke="#449FDB" opacity="0.3"></line>
    <line stroke-width="1" x1="0" y1="736" x2="1196" y2="736" stroke="#449FDB" opacity="1"></line>
    <line stroke-width="1" x1="0" y1="752" x2="1196" y2="752" stroke="#449FDB" opacity="0.3"></line>
    <line stroke-width="1" x1="0" y1="768" x2="1196" y2="768" stroke="#449FDB" opacity="1"></line>
    <line stroke-width="1" x1="0" y1="784" x2="1196" y2="784" stroke="#449FDB" opacity="0.3"></line>
    <line stroke-width="1" x1="0" y1="800" x2="1196" y2="800" stroke="#449FDB" opacity="1"></line>
    <line stroke-width="1" x1="0" y1="816" x2="1196" y2="816" stroke="#449FDB" opacity="0.3"></line>
    <line stroke-width="1" x1="0" y1="832" x2="1196" y2="832" stroke="#449FDB" opacity="1"></line>
    <line stroke-width="1" x1="0" y1="848" x2="1196" y2="848" stroke="#449FDB" opacity="0.3"></line>
    <line stroke-width="1" x1="0" y1="864" x2="1196" y2="864" stroke="#449FDB" opacity="1"></line>
    <line stroke-width="1" x1="0" y1="880" x2="1196" y2="880" stroke="#449FDB" opacity="0.3"></line>
    <line stroke-width="1" x1="0" y1="896" x2="1196" y2="896" stroke="#449FDB" opacity="1"></line>
    <line stroke-width="1" x1="0" y1="912" x2="1196" y2="912" stroke="#449FDB" opacity="0.3"></line>
    <line stroke-width="1" x1="0" y1="928" x2="1196" y2="928" stroke="#449FDB" opacity="1"></line>
    <line stroke-width="1" x1="0" y1="944" x2="1196" y2="944" stroke="#449FDB" opacity="0.3"></line>
    <line stroke-width="1" x1="0" y1="960" x2="1196" y2="960" stroke="#449FDB" opacity="1"></line>
    <line stroke-width="1" x1="0" y1="976" x2="1196" y2="976" stroke="#449FDB" opacity="0.3"></line>
    <line stroke-width="1" x1="0" y1="992" x2="1196" y2="992" stroke="#449FDB" opacity="1"></line>
    <line stroke-width="1" x1="0" y1="1008" x2="1196" y2="1008" stroke="#449FDB" opacity="0.3"></line>
</g>
<path fill="#000" d="M909.74 14.342c-11.428 11.428-13.605 17.414-10.884 34.829 2.177 18.502 0.544 21.768-14.694 33.196-14.694 11.428-21.768 13.061-57.684 11.428-37.549-1.633-73.466 5.441-114.825 22.856-5.986 2.721-10.884-1.633-17.414-15.781-17.958-38.093-50.61-19.047-57.684 34.285-2.721 23.401-7.074 29.931-39.182 59.861l-36.46 33.74-45.168 5.986c-50.61 5.986-94.69 19.591-141.49 43.536-17.414 8.707-32.652 15.781-33.74 15.781s-0.544-8.707 0.544-19.047c1.088-10.34 5.441-19.047 9.251-19.047 13.061 0 26.121-20.679 22.856-36.46-2.721-13.061 0.544-17.958 17.958-33.196 11.428-9.251 25.578-17.414 31.563-17.414 16.87 0 31.019-20.679 31.019-45.168 0-20.679 1.633-22.856 15.781-25.578 22.856-3.81 30.475-18.502 16.325-32.652-13.605-13.605-28.298-9.795-35.373 9.251-3.81 10.884-7.618 13.061-17.414 9.795-31.019-9.795-40.814-9.251-51.698 2.721-20.135 23.401-25.578 28.298-48.977 44.080-40.27 27.754-51.698 76.187-20.135 84.35 34.285 8.707-14.694 62.038-57.14 62.038-10.884 0-10.884-0.544 2.177-20.679 29.931-47.889 38.093-98.499 20.679-131.695-14.149-26.121-42.447-40.814-118.635-60.405-62.038-16.325-111.559-36.46-119.178-48.433s-12.517-4.354-7.618 11.972c6.53 22.856 2.177 53.331-17.414 124.076-18.502 66.936-19.591 94.146-5.441 117.546 13.061 21.224 52.243 40.27 95.234 45.168 31.563 3.265 32.652 3.81 19.591 10.884-23.401 12.517-53.875 45.168-57.14 61.494-2.177 8.163-6.53 15.238-9.795 15.238-3.81 0 3.81 5.986 16.325 13.605s24.489 18.502 26.121 24.489c4.354 13.605 28.842 14.694 33.74 1.633 2.177-5.986-1.633-13.061-11.428-20.679-18.502-14.694-16.87-28.842 4.898-41.359 35.373-20.135 38.637-19.047 54.964 14.149 8.163 16.325 13.605 31.019 12.517 31.563-1.088 1.088-17.958 12.517-37.549 25.578-42.447 28.298-74.010 52.243-100.676 75.643l-19.591 17.414v47.889c0 48.977 11.972 119.722 25.033 150.197 5.986 15.781 10.34 17.414 61.494 29.931 53.875 12.517 55.508 12.517 66.392 2.721 5.986-5.441 11.972-8.707 12.517-7.618 23.401 29.931 26.665 38.637 19.591 51.698-5.441 10.34-5.441 16.325-1.088 23.945 4.898 7.074 4.898 11.972 0 18.502-5.986 8.163-8.707 8.707-26.121 1.088l-19.591-8.163-3.265 27.209c-2.177 15.238-8.163 35.373-14.694 45.168-19.047 31.563-11.972 64.759 19.591 85.439 26.665 17.414 53.331 13.061 83.806-14.149 7.618-6.53 23.945-14.694 36.46-18.502 26.121-7.074 27.209-9.251 14.149-23.945-9.251-9.795-9.251-10.884 1.088-17.958 5.986-4.898 16.325-7.074 22.856-5.986 7.074 1.088 16.87-0.544 21.768-4.354 7.618-5.986 12.517-5.986 23.945 0.544 8.163 3.81 33.74 13.061 57.684 19.591 58.773 16.87 164.891 16.87 226.384 0 108.838-29.386 206.249-107.207 256.859-203.528 13.061-23.945 22.856-37.005 29.386-37.005 4.898 0 11.972-2.721 15.238-5.986 3.81-3.81 7.074 4.898 9.795 30.475l3.81 35.917 30.475-3.81c48.977-5.986 85.983-20.135 83.806-32.652-0.544-5.441-4.354-30.475-8.707-55.508l-7.074-45.168 16.325-12.517c14.694-11.428 16.87-17.414 21.768-59.861l5.986-46.8-24.489-25.033c-38.637-40.814-103.941-90.88-108.295-83.806-2.721 4.354-14.149 2.177-38.637-8.163-41.359-17.414-50.61-24.489-31.563-24.489 20.135 0 106.662-26.121 136.593-41.359 14.149-7.074 29.386-17.958 32.652-23.945 9.795-15.238 45.713-15.238 49.521 0 1.633 5.986 9.251 13.605 16.87 16.87 10.884 5.441 16.325 4.898 27.754-2.721 16.87-10.884 17.414-27.209 1.633-38.093-15.238-10.884-25.578-10.884-37.005-0.544-12.517 11.428-52.787 5.441-60.405-8.707-8.707-16.87-46.257-32.108-93.057-38.093-24.489-2.721-49.521-4.898-56.597-3.81s-12.517 0-13.061-2.721c0-2.177 0-15.781 0-30.475 0-22.856 1.633-27.209 12.517-29.931 71.834-20.679 69.112-20.135 86.527-5.986 19.591 16.325 33.74 16.87 57.684 2.721 34.285-21.224 18.502-67.48-22.856-67.48-20.679 0-39.726 13.605-47.344 33.196-2.721 8.163-9.251 12.517-16.87 12.517-7.074 0.544-25.578 4.898-41.359 10.34l-28.842 9.795-7.618-17.414c-3.81-9.795-14.694-23.401-23.945-30.475l-16.87-12.517 17.958-14.694c13.605-11.428 19.591-13.605 27.209-9.251 23.401 11.972 58.228-11.428 58.228-39.182 0-35.917-42.447-50.61-69.112-23.945zM961.439 17.607c15.781 15.781 3.265 44.080-21.768 50.066-26.665 5.986-41.903-25.033-22.312-46.8 9.795-10.884 34.285-13.061 44.080-3.265zM165.283 78.557c71.834 17.414 97.955 32.652 105.574 61.494 9.795 35.373 5.986 44.080-4.898 12.517-12.517-34.285-32.108-54.42-53.331-54.42-27.754 0-55.508-6.53-51.698-12.517 2.177-3.265 0.544-3.81-3.265-1.633-8.707 5.986-45.168-1.633-41.359-7.618 1.633-3.265-0.544-3.81-4.898-2.177-4.898 1.633-19.591-3.265-33.196-10.884l-24.489-14.694v25.578c0 14.694-8.163 51.698-19.047 84.35-21.768 68.024-22.856 82.717-8.163 106.662 5.986 9.795 9.251 17.958 8.163 17.958-7.074 0-24.489-37.005-24.489-52.243 0-9.251 7.618-42.447 16.325-73.466 9.251-31.019 17.958-70.201 19.591-87.071l3.81-31.019 27.754 12.517c15.238 6.53 54.964 18.502 87.616 26.665zM480.916 76.924c0 3.81-4.354 8.163-9.251 9.251-9.795 1.633-13.605-9.795-5.986-17.414 5.441-5.441 15.238-0.544 15.238 8.163zM402.552 86.72c-7.618 2.177-14.694 7.074-15.781 11.428-2.177 6.53-1.088 7.074 4.898 2.177 11.972-9.795 37.549-14.149 37.549-7.074 0 3.81-1.633 5.441-3.265 3.265-2.177-1.633-7.074 0.544-11.972 4.898-4.354 4.898-13.605 7.618-21.224 5.986-23.945-4.354-13.605 29.931 13.605 44.624 13.061 7.074 30.475 1.088 35.373-11.428 2.177-4.898 3.265-4.898 3.265-0.544 0.544 9.795-15.238 23.401-27.209 23.401-16.325 0-42.991-28.842-42.991-46.8 0-18.502 14.149-34.829 29.386-34.285 10.34 0.544 9.795 1.088-1.633 4.354zM687.166 116.106c4.354 15.781 7.074 19.591 13.605 16.87 90.88-40.814 166.523-38.637 198.631 4.354 14.149 19.591 17.414 68.568 7.074 106.118-4.354 15.781-6.53 29.931-4.898 31.563s9.251 2.721 17.414 2.721c8.163 0 18.502 4.354 23.945 10.34 12.517 13.605 2.177 21.768-32.652 25.033l-26.665 2.177 28.842-5.441c15.238-3.265 28.298-8.163 28.298-10.34 0-7.074-18.502-16.325-32.108-16.325-13.061 0-16.325-9.251-10.34-29.931 11.972-44.080-2.721-108.838-28.298-122.443-15.781-8.707-78.363-11.972-96.867-4.898-8.163 3.265-20.135 10.884-26.665 16.87-7.074 6.53-12.517 9.795-12.517 7.618 0-7.618-48.433 29.931-66.936 52.243l-19.047 22.856 44.080 13.061c55.508 15.781 109.927 45.168 148.021 78.908l28.842 25.578 5.441-14.694c3.265-8.707 5.986-11.972 5.986-8.163 0.544 3.81-2.177 11.972-4.898 17.958-5.441 9.795-7.618 9.251-32.652-12.517-63.127-54.42-140.402-87.616-224.752-95.234l-42.447-4.354 35.373-29.931c33.196-28.298 34.829-30.475 37.005-57.684 3.81-47.889 29.386-62.038 39.182-22.312zM1072.999 108.488c7.074 2.721 14.694 10.34 16.325 16.325 5.986 23.945-26.121 43.536-54.964 32.652-17.958-7.074-15.238-37.005 4.354-46.8 16.325-8.163 17.414-8.163 34.285-2.177zM238.75 119.916c14.149 14.149 19.047 34.829 13.061 55.508-4.354 14.149-9.795 18.502-32.108 26.121-26.121 8.707-75.643 33.196-107.207 53.331-14.149 8.707-15.781 8.707-34.829-1.633-23.945-12.517-41.359-38.637-37.005-54.42 1.633-5.986 9.251-16.325 16.87-23.401 12.517-11.428 18.502-12.517 52.243-10.884 38.093 1.633 38.637 1.633 42.447-14.149 2.721-8.707 9.795-21.224 16.325-28.298 15.781-16.87 53.875-18.502 70.201-2.177zM372.621 137.874c4.354 9.795 4.354 13.061-1.088 13.061-3.81 0-5.441-2.721-3.81-5.441 2.177-3.265-3.265-4.354-13.605-2.177-19.591 3.81-22.312 0.544-7.618-10.34 13.605-10.34 19.591-9.251 26.121 4.898zM434.659 136.241c-3.265 5.986-8.163 10.884-11.428 10.884s-3.265-3.81 0.544-10.884c3.265-5.986 8.163-10.884 11.428-10.884s3.265 3.81-0.544 10.884zM850.968 139.507c7.618 8.163 13.605 18.502 13.605 23.401s-4.354 1.633-10.34-8.707c-5.986-9.251-15.238-19.591-20.679-22.856s-7.074-5.986-2.721-5.986c3.81 0 13.061 6.53 20.135 14.149zM841.172 149.846c14.694 16.87 15.238 25.033 3.81 48.977-23.945 50.61-111.015 43.536-111.015-9.251 0-21.768 8.163-35.373 28.842-48.433 24.489-15.238 61.494-11.428 78.363 8.707zM321.467 164.54c-4.898 4.898-4.354 8.707 2.721 16.325 8.707 9.795 8.707 9.795-0.544 6.53-7.074-2.721-9.251-1.633-7.618 3.265 3.81 11.972 14.149 12.517 24.489 0.544 4.898-6.53 13.605-11.428 19.047-11.428s9.795-3.265 10.34-7.074c0-4.898 1.088-4.898 3.265 0.544s4.354 5.441 10.34 0.544c4.354-3.265 5.986-8.707 3.81-11.972s-0.544-3.81 3.81-1.088c17.414 10.884-57.684 52.243-79.452 44.080-4.354-1.633-7.618-8.707-7.618-15.238 0-14.149 15.238-39.726 20.679-34.285 1.633 1.633 0 5.986-3.265 9.251zM354.119 160.73c6.53 8.707 4.898 11.972-7.618 15.238-15.781 4.354-20.135 0.544-16.87-12.517 3.265-11.428 17.414-13.061 24.489-2.721zM728.524 162.907c-10.34 20.135-6.53 44.080 10.34 60.405 18.502 18.502 37.005 24.489 63.127 19.591 21.768-4.354 57.14-36.46 57.14-52.243 0-5.441 2.177-11.428 4.898-13.605 3.265-1.633 3.265 3.81 0.544 14.694-10.884 37.549-54.964 64.215-94.146 56.597-25.033-4.898-52.787-35.373-52.787-58.228 0-15.781 8.163-37.549 14.149-37.549 1.088 0 0 4.898-3.265 10.34zM255.62 205.354c-6.53 10.884-7.618 7.618-2.721-6.53 2.177-4.898 4.898-7.618 5.986-5.986 1.633 1.088 0 7.074-3.265 12.517zM236.574 218.959c-4.898 6.53-8.707 10.884-8.707 8.707 0-1.633-1.633-7.074-3.265-11.428-1.633-5.441 0.544-9.251 7.074-10.34 14.149-3.265 14.694-1.088 4.898 13.061zM222.424 223.857c4.898 8.707 4.354 14.149-2.721 24.489-11.428 17.414-15.238 16.325-26.121-5.986-8.163-17.414-8.163-19.047 0.544-23.945 14.149-8.707 21.768-7.074 28.298 5.441zM189.228 246.169c11.428 19.047 10.34 22.856-8.163 28.298-9.251 2.721-14.149 0-22.856-14.149-10.34-16.325-10.34-17.958-2.177-24.489 14.149-10.34 20.679-8.707 33.196 10.34zM78.213 263.038c9.251 4.898 14.149 8.707 11.972 9.251-8.707 0-34.285-15.781-44.624-27.754l-10.884-13.061 13.605 11.428c7.618 6.53 21.224 15.781 29.931 20.135zM233.308 249.978c-6.53 12.517-31.563 33.196-40.27 33.196-3.265 0 1.633-4.898 11.428-10.884 9.251-5.441 20.135-15.238 23.401-21.224 3.265-6.53 7.074-11.428 8.707-11.428 1.088 0 0 4.898-3.265 10.34zM627.849 245.080c21.224 2.721 45.713 7.618 54.42 11.428 9.251 3.81 18.502 5.986 20.679 5.441 2.721-0.544 3.265 1.088 1.633 3.81s11.972 15.238 29.386 27.754c37.549 27.209 42.447 35.917 22.312 37.005-11.428 0.544-11.972 0-3.81-3.265 8.707-3.265 4.898-5.986-19.047-15.781-45.713-18.502-96.323-28.298-144.756-28.298h-45.168v17.958c0 9.795-3.81 22.856-8.163 29.386-7.618 11.428-7.618 14.149 5.441 39.182 7.618 15.238 13.605 29.386 13.605 31.563-0.544 2.177-9.251-12.517-19.591-32.652-14.694-28.842-17.414-39.182-13.061-44.624 9.795-11.972 4.354-31.563-10.884-39.182-39.726-20.135-125.709 8.163-147.477 47.889-7.074 13.605 2.177 31.019 19.047 35.373 9.251 2.177 11.972 5.986 10.34 13.605-4.354 15.238-9.251 13.061-25.578-11.428-13.061-19.591-15.238-21.224-27.754-15.238-11.428 4.898-15.238 4.354-24.489-3.81l-10.884-9.795 11.972-13.061c6.53-7.074 14.694-12.517 18.502-12.517 3.265 0 9.251-3.81 13.605-8.707 17.958-21.768 106.662-54.42 168.156-61.494 49.521-6.53 68.024-6.53 111.559-0.544zM157.121 272.834c0 2.721-6.53 3.81-14.694 1.633-31.563-6.53-32.652-7.618-17.958-18.502 13.605-10.34 13.605-10.34 23.401 0.544 4.898 6.53 9.251 13.605 9.251 16.325zM1026.742 267.937c19.047 19.047-7.074 44.080-35.373 33.74-33.74-11.972-27.754-40.27 8.707-40.27 10.884 0 22.856 2.721 26.665 6.53zM309.495 295.146c0 2.177-1.633 4.354-3.81 4.354-2.721 0-10.34 4.898-17.414 10.34l-13.061 10.34 17.414 22.312c10.34 12.517 17.414 23.401 16.325 23.945-4.898 3.265-43.536 20.135-45.713 20.135-2.721 0-9.251-31.019-13.061-66.392l-3.81-31.019 20.679-3.265c11.428-2.177 22.312-6.53 23.945-9.251 3.81-5.986 18.502 9.251 18.502 18.502zM761.176 285.895c9.251 4.898 16.325 9.795 16.325 11.428 0 2.177-32.108-12.517-37.549-17.414s7.074-1.633 21.224 5.986zM175.079 286.983c-7.074 1.088-19.047 1.088-27.209 0-8.707-1.088-2.721-2.177 11.972-2.177 15.238 0 21.768 1.088 15.238 2.177zM1176.94 286.439c11.972 4.354 11.428 23.945-0.544 23.401-5.986 0-7.074-1.633-2.721-3.265 10.884-4.354 7.618-12.517-4.898-12.517-8.163 0-10.34 2.721-8.163 8.163 3.265 9.251-4.898 11.428-10.34 2.721-9.251-15.238 6.53-26.121 26.665-18.502zM325.821 303.853c0 6.53-31.019 28.298-34.829 24.489-2.177-2.177 3.265-9.251 11.428-16.325 15.781-13.061 23.401-15.238 23.401-8.163zM819.949 325.621c13.061 10.34 22.312 19.591 21.224 21.224-1.633 1.088-8.163-3.265-15.238-10.34s-20.135-18.502-29.386-25.033c-8.707-7.074-12.517-10.884-8.163-8.707s18.502 12.517 31.563 22.856zM643.086 314.193c-7.074 1.088-19.047 1.088-27.209 0-8.707-1.088-2.721-2.177 11.972-2.177 15.238 0 21.768 1.088 15.238 2.177zM590.843 376.775c-1.088 13.061-2.177 3.81-2.177-20.135s1.088-34.285 2.177-23.401c1.088 11.428 1.088 31.019 0 43.536zM697.505 319.635c-3.81 1.088-11.428 1.088-16.325 0-5.441-1.633-2.177-2.721 6.53-2.721 9.251 0 13.061 1.088 9.795 2.721zM176.167 343.579c9.251 12.517 25.578 30.475 36.46 40.27 19.591 18.502 20.135 20.679 0.544 32.108-4.898 2.721-11.972-6.53-21.768-27.754-8.163-17.414-15.781-32.652-16.325-33.74-3.265-5.441-51.698 13.061-63.671 23.945s-35.917 21.224-35.917 15.781c0-20.679 55.508-69.657 81.629-72.378 1.633 0 10.34 9.795 19.047 21.768zM496.153 325.077c-3.81 1.088-10.34 1.088-13.605 0-3.81-1.633-1.088-2.721 6.53-2.721s10.34 1.088 7.074 2.721zM730.157 325.077c-3.81 1.088-10.34 1.088-13.605 0-3.81-1.633-1.088-2.721 6.53-2.721s10.34 1.088 7.074 2.721zM463.502 330.519c-3.81 1.088-10.34 1.088-13.605 0-3.81-1.633-1.088-2.721 6.53-2.721s10.34 1.088 7.074 2.721zM731.79 340.314c27.209 4.354 61.494 10.34 76.732 13.605l27.754 5.986-2.721 33.74c-2.721 27.209-23.401 85.439-30.475 85.439-1.088 0-11.428-10.34-22.856-23.401l-21.768-22.856 44.080 40.814 9.795-19.591c4.898-10.884 8.707-20.135 7.618-20.679-3.265-1.633-88.703-18.502-89.792-17.414-0.544 0.544 20.135 23.945 46.257 52.243l47.344 51.698-5.441 87.071h-212.235l-3.265-90.336 57.684 1.633c31.563 1.088 57.14 0 57.14-2.177 0-8.163-13.605-11.428-39.182-10.34-37.549 1.633-64.759-15.238-63.127-39.182l0.544-17.414 2.177 16.87c2.721 21.768 27.754 36.46 58.228 33.74l21.768-1.633-40.27-34.285c-35.373-29.386-41.359-32.652-44.624-24.489-3.81 7.618-4.354 7.074-2.177-2.177 1.088-7.074 0-14.149-2.721-15.781s-4.898-23.945-4.898-49.521v-46.257l39.726 3.81c21.224 1.633 61.494 7.074 88.703 10.884zM430.851 335.96c-3.81 1.088-10.34 1.088-13.605 0-3.81-1.633-1.088-2.721 6.53-2.721s10.34 1.088 7.074 2.721zM795.46 335.96c-3.81 1.088-10.34 1.088-13.605 0-3.81-1.633-1.088-2.721 6.53-2.721s10.34 1.088 7.074 2.721zM549.484 427.929c38.637 81.085 42.991 93.057 42.991 121.899v32.108l-31.019 7.074c-17.414 3.81-33.74 7.074-35.917 7.074-5.441 0-58.773-127.886-55.508-133.327 1.633-2.177 14.694-5.441 29.931-7.618 14.694-2.177 27.209-6.53 27.209-9.251 0-3.265-3.265-4.898-7.618-3.265-3.81 1.633-18.502 4.898-32.652 6.53-13.605 2.177-26.665 5.986-27.754 8.707-1.633 2.177 0.544 12.517 4.354 22.312 6.53 15.781 5.986 23.945-5.986 71.834-14.149 54.42-14.149 54.964 1.633 91.424 2.721 7.074 1.088 9.795-5.441 9.795-4.898 0-7.618-2.177-5.441-4.898 3.81-6.53-8.163-33.196-14.694-33.196-2.721 0-20.135 3.81-39.182 8.707l-34.285 8.707 16.87 18.502c14.694 16.87 16.87 17.958 20.679 9.251 3.265-8.707 3.81-8.163 3.81 2.177 0.544 6.53 2.177 16.325 4.354 21.768 1.633 5.441-9.795-4.898-26.121-22.312l-29.931-32.108 60.95-278.627 38.093-5.986c20.679-3.265 41.903-6.53 47.344-7.074 7.618-0.544 19.591 20.135 53.331 89.792zM819.404 340.859c-1.633 1.633-6.53 2.177-10.34 0.544-4.354-1.633-2.721-3.265 3.265-3.265 5.986-0.544 9.251 1.088 7.074 2.721zM394.933 360.45c-1.633 4.354-3.265 2.721-3.265-3.265-0.544-5.986 1.088-9.251 2.721-7.074 1.633 1.633 2.177 6.53 0.544 10.34zM353.030 466.022c0 56.052-2.721 117.002-6.53 136.049l-5.986 34.285 25.578 30.475c14.149 16.325 23.945 29.931 21.224 29.931-2.177-0.544-14.149-12.517-25.578-27.209-11.972-15.238-24.489-27.209-27.754-27.209-9.795 0-40.814 11.428-40.814 15.238s43.536 41.359 53.875 45.713c5.441 2.177 5.986 3.81 1.633 3.81-10.34 0.544-70.201-49.521-74.010-62.038-1.633-5.986-3.265-23.401-3.81-38.093 0-15.238-2.721-33.196-4.898-40.814-5.986-18.502-6.53 29.386-0.544 69.112l3.81 28.842-53.331 17.414 31.019 18.502c26.121 15.781 34.285 17.958 50.61 15.238l19.591-3.81-24.489-21.768c-25.578-22.856-14.149-16.87 15.238 8.163l17.958 14.694-22.312 5.986c-11.972 3.265-23.945 5.441-25.578 4.354-2.177-1.088-20.135-10.884-40.27-22.312-27.209-15.781-37.005-24.489-39.182-35.373-10.34-46.257-19.591-130.062-19.591-170.876v-47.344l29.386-16.325c15.781-9.251 30.475-16.87 32.652-16.87 1.633 0 3.265 10.34 3.81 22.856 0.544 22.312 8.163 56.597 10.34 45.168 0-3.265 1.088-22.312 1.633-42.991l1.088-37.549 40.814-17.958c22.312-9.795 44.080-18.502 47.889-18.502 4.898 0 6.53 23.945 6.53 101.22zM915.183 389.836c33.74 13.605 62.582 26.121 64.759 28.298 4.898 5.441-9.251 69.112-15.238 68.024-2.721-0.544-17.958-5.986-33.74-11.972-15.238-5.986-28.298-9.251-28.298-6.53s14.694 10.34 33.196 16.87l32.652 12.517-3.81 22.312c-1.633 12.517-4.354 23.401-5.441 24.489s-15.781-1.633-32.108-5.986c-16.325-4.354-29.931-6.53-29.931-3.81 0 2.177 13.605 8.163 30.475 13.061l30.475 8.707-3.81 22.856c-3.265 22.312-9.251 35.373-35.917 83.806-10.34 17.958-16.325 23.401-26.665 22.856-13.605-0.544-13.605-0.544-1.088-3.81 7.618-2.177 19.047-15.238 28.842-32.108l16.325-28.298-20.679-3.81c-11.428-1.633-35.373-6.53-52.787-9.795l-32.652-6.53 1.633-56.597c0.544-31.563 3.265-79.452 5.986-106.118 3.265-27.209 5.441-54.42 5.441-61.494 0-6.53 2.721-11.972 5.986-11.972 2.721 0 33.196 11.428 66.392 25.033zM590.843 428.473c-1.633 5.441-2.721 2.177-2.721-6.53 0-9.251 1.088-13.061 2.721-9.795 1.088 3.81 1.088 11.428 0 16.325zM1055.584 458.948l51.154 45.713-1.088 45.168c-1.088 51.698-5.441 60.405-25.578 46.8-7.618-4.898-14.694-8.707-15.781-8.707s3.265 33.196 9.795 74.010l11.972 74.010-12.517 4.354c-6.53 2.721-20.679 6.53-31.563 8.163l-19.591 3.81-0.544-28.842c-0.544-16.325-1.088-71.289-1.633-122.443l-1.088-93.601 23.945 16.325c13.061 8.707 25.033 15.238 26.665 13.605 2.177-2.721-51.698-41.903-58.228-41.903-1.633 0-2.177 32.108-1.088 71.289 1.633 66.392 1.088 70.745-8.163 68.568-39.726-11.428-41.359-10.884-57.684 17.958-8.163 15.238-13.605 29.931-11.972 33.196 2.177 2.721-0.544 4.898-5.441 4.898-7.074 0-4.898-7.074 9.795-34.285 15.781-27.754 21.768-50.066 35.917-126.253 21.224-115.913 21.768-117.002 26.665-117.002 2.721 0 27.754 20.135 56.052 45.168zM594.109 462.758c1.633-9.795 2.177-9.251 1.088 2.721-1.088 11.428 2.721 20.135 11.972 28.298 11.428 10.884 11.972 12.517 3.265 12.517-7.074 0-15.238-9.795-25.033-29.931-16.325-33.74-19.591-48.433-4.354-19.047 10.34 18.502 10.34 18.502 13.061 5.441zM175.623 585.201c1.633 4.354 0.544 9.251-2.721 10.884-2.721 2.177-3.81 5.986-2.177 8.707s0 3.265-3.81 2.177c-4.354-1.633-11.972 0.544-17.958 4.898-9.795 7.074-9.251 7.618 6.53 16.325 16.87 8.163 17.414 8.163 19.047-3.81 1.633-9.251 2.721-8.163 4.898 5.441l2.721 17.958-23.945-13.605c-13.061-7.618-27.209-13.605-30.475-13.605s-13.061-5.986-21.768-12.517l-15.781-13.061 17.414-11.972c25.033-17.958 16.87-20.135-10.34-3.265-12.517 8.163-20.679 16.325-18.502 18.502 2.721 2.177 15.238 11.972 27.209 21.224 21.224 16.325 22.856 19.591 27.209 53.331l4.898 35.917 28.842 10.884c37.005 13.605 34.285 17.958-3.265 5.986l-28.298-9.251-25.033 17.958c-14.149 9.795-28.298 16.325-32.108 15.238-13.061-5.441-35.373-115.913-35.373-175.23 0-21.224 2.177-25.033 28.842-47.344 15.238-13.605 42.991-34.829 60.95-47.344l32.652-22.856 3.81 60.405c1.633 33.196 4.898 63.671 6.53 68.024zM591.387 645.062c-1.088 0.544-7.618 2.721-15.238 4.898-13.605 3.265-13.605 3.265-1.088-2.721 9.795-5.441 11.972-11.428 13.061-34.285l1.088-27.754 1.633 29.386c1.088 15.781 1.633 29.386 0.544 30.475zM551.117 641.253c5.986 3.265 8.707 5.986 5.441 5.986-10.884 1.088-23.401-13.061-26.121-29.386l-3.265-16.325 5.986 16.87c3.265 9.795 11.428 20.135 17.958 22.856zM1087.692 606.425c0 1.633-2.177 4.354-5.441 5.986-2.721 1.633-5.441 0.544-5.441-2.177 0-3.265 2.721-5.986 5.441-5.986 3.265 0 5.441 1.088 5.441 2.177zM516.288 627.104c0 2.721-2.177 4.354-5.441 4.354-2.721 0-5.441-5.441-5.441-12.517 0-9.795 1.088-10.34 5.441-3.81 2.721 4.354 5.441 9.795 5.441 11.972zM812.875 636.9l-20.135 27.209 15.781 0.544c13.605 1.088 13.605 1.088 2.177 3.265-22.312 4.354-23.401-5.986-2.721-32.652 26.665-34.285 29.931-32.652 4.898 1.633zM624.039 649.416c6.53 1.633 5.441 2.721-2.721 3.265-10.884 0.544-12.517-1.633-11.428-20.135 0.544-19.591 0.544-19.591 2.721-2.721 1.633 10.34 5.986 18.502 11.428 19.591zM787.297 639.621c-9.795 13.061-20.135 23.945-22.312 24.489-2.721 0 4.354-10.884 15.781-24.489 25.578-31.563 29.386-31.563 6.53 0zM521.731 639.077c0 1.088-4.898 3.265-10.884 4.898s-10.884 0.544-10.884-2.177c0-2.721 4.898-4.898 10.884-4.898s10.884 1.088 10.884 2.177zM978.309 669.007c-13.061 15.238-27.754 27.209-32.108 27.209-7.074-0.544-7.074-1.088 0-3.265 4.354-1.088 17.958-14.149 29.931-28.842s22.312-25.578 23.401-24.489c1.088 1.088-8.163 14.694-21.224 29.386zM428.129 646.151c-5.441 1.088-14.149 1.088-19.047 0-5.441-1.633-1.088-2.721 9.251-2.721s14.694 1.088 9.795 2.721zM558.191 664.109c15.781 9.251 28.842 34.285 22.312 41.359-1.633 1.088-16.87-5.986-34.285-16.87-17.958-10.34-36.46-19.047-41.903-19.047-12.517 0-13.061-9.251 0-12.517 20.135-5.441 37.005-3.265 53.875 7.074zM719.273 657.035c-13.061 1.088-33.74 1.088-46.257 0-13.061-1.088-2.721-2.177 22.856-2.177s35.917 1.088 23.401 2.177zM505.405 680.435c15.238 5.986 34.285 15.238 42.447 20.135 27.209 16.87 88.159 63.671 88.159 67.48 0 2.721-10.34-0.544-22.856-5.986-13.061-5.441-32.652-11.972-44.624-14.149-20.135-3.265-20.679-3.265-14.149 8.163 3.265 6.53 16.87 23.401 30.475 37.005 13.061 14.149 23.945 26.121 23.945 27.209 0 5.441-39.726 17.958-56.052 17.958-22.312 0-26.665-3.81-20.135-16.325 4.354-8.163 0-14.694-23.945-34.829-31.019-26.121-39.182-30.475-33.74-16.87 9.795 26.665-26.665-19.047-45.713-56.597-9.251-17.958-16.325-44.624-13.605-49.521 3.81-5.986 59.317 4.354 89.792 16.325zM632.202 673.36c-7.074 1.088-17.958 1.088-24.489 0-7.074-1.088-1.633-2.177 11.972-2.177s19.047 1.088 12.517 2.177zM844.438 673.36c-3.81 1.088-10.34 1.088-13.605 0-3.81-1.633-1.088-2.721 6.53-2.721s10.34 1.088 7.074 2.721zM732.334 678.803c-10.884 1.088-28.298 1.088-38.093 0-9.251-1.088 0-2.177 20.679-2.177 21.224 0 28.842 1.088 17.414 2.177zM871.647 678.803c-3.81 1.088-10.34 1.088-13.605 0-3.81-1.633-1.088-2.721 6.53-2.721s10.34 1.088 7.074 2.721zM792.195 683.7c-1.633 1.633-6.53 2.177-10.34 0.544-4.354-1.633-2.721-3.265 3.265-3.265 5.986-0.544 9.251 1.088 7.074 2.721zM624.039 709.277l25.578 1.633-28.298 1.088c-28.298 1.088-28.842 0.544-28.298-14.149 0.544-11.972 1.088-12.517 3.265-2.721s6.53 12.517 27.754 14.149zM819.404 689.142c-1.633 1.633-6.53 2.177-10.34 0.544-4.354-1.633-2.721-3.265 3.265-3.265 5.986-0.544 9.251 1.088 7.074 2.721zM849.879 695.128c-3.81 1.088-10.34 1.088-13.605 0-3.81-1.633-1.088-2.721 6.53-2.721s10.34 1.088 7.074 2.721zM373.166 700.026c-1.633 1.633-6.53 2.177-10.34 0.544-4.354-1.633-2.721-3.265 3.265-3.265 5.986-0.544 9.251 1.088 7.074 2.721zM877.090 700.57c-3.81 1.088-10.34 1.088-13.605 0-3.81-1.633-1.088-2.721 6.53-2.721s10.34 1.088 7.074 2.721zM229.499 722.338c-3.265 7.618-4.354 7.618-7.618-1.633-6.53-16.325-5.441-20.135 2.721-13.061 4.354 3.265 6.53 10.34 4.898 14.694zM906.476 705.468c-1.633 1.633-6.53 2.177-10.34 0.544-4.354-1.633-2.721-3.265 3.265-3.265 5.986-0.544 9.251 1.088 7.074 2.721zM421.599 725.059c4.898 9.795 18.502 30.475 29.931 45.713 11.972 15.238 21.224 29.386 21.224 32.108 0 6.53-53.331-67.48-57.14-78.908-1.633-5.441-7.618-11.428-12.517-12.517-8.707-2.177-8.707-2.721 0-3.265 5.441-0.544 13.061 6.53 18.502 16.87zM389.492 716.352c-1.633 1.633-6.53 2.177-10.34 0.544-4.354-1.633-2.721-3.265 3.265-3.265 5.986-0.544 9.251 1.088 7.074 2.721zM260.518 732.678c0 1.088-4.898 0-10.884-3.265s-10.884-7.074-10.884-8.707c0-1.088 4.898 0 10.884 3.265s10.884 7.074 10.884 8.707zM367.724 721.794c-1.633 1.633-6.53 2.177-10.34 0.544-4.354-1.633-2.721-3.265 3.265-3.265 5.986-0.544 9.251 1.088 7.074 2.721zM646.351 728.868c12.517 3.265 12.517 3.81 2.721 15.781l-10.34 12.517-38.093-32.652h16.325c9.251 0.544 22.312 2.177 29.386 4.354zM908.109 734.854c6.53 3.81 3.265 11.428-18.502 43.536-96.867 141.49-280.26 204.617-456.579 157.272-23.401-6.53-51.154-17.414-61.494-24.489s-20.679-13.061-22.856-13.061c-6.53 0-44.624-27.209-44.624-31.563 0-6.53 25.578-3.81 34.829 3.81 6.53 5.441 8.163 4.354 9.795-5.986 1.088-10.34 5.441-13.061 23.945-14.149 17.958-1.088 26.121 1.088 39.726 13.061 21.768 17.958 21.768 40.814 0.544 45.713-13.061 3.81-13.061 3.81 6.53 11.972 72.378 31.563 194.821 29.931 274.817-3.81l20.679-8.707-13.605-7.618c-19.047-10.884-27.209-9.795-27.209 2.721 0 13.605-1.088 13.605-27.209-2.721l-21.224-13.605-3.265 40.27-15.781-23.945-15.238-23.401-9.795 12.517-9.251 12.517-3.265-15.781c-2.177-8.707-4.898-21.224-7.074-27.754-2.721-9.251-0.544-11.972 13.061-15.238 8.707-1.633 23.945-9.251 34.285-16.87 9.795-7.074 22.312-13.061 27.209-13.061 5.441 0 16.325-2.721 24.489-5.441l14.694-5.986-31.019-32.108h22.856c21.224 0 22.856 1.088 17.414 10.34-2.721 5.986-5.441 11.428-5.441 12.517s11.428 1.088 26.121 0l25.578-1.633-16.325 13.605c-15.781 13.605-15.781 14.149-5.441 21.768 5.986 4.898 15.781 10.34 21.768 11.972 9.251 3.265 8.163 4.898-8.163 10.34-22.312 7.618-23.401 11.428-7.074 32.108l11.972 15.238 20.679-12.517c11.428-7.074 33.74-24.489 48.977-39.182 26.121-24.489 27.754-27.754 20.679-37.549-8.163-12.517-5.986-23.401 9.795-41.359 11.972-13.061 28.298-15.781 34.285-5.986 2.177 4.354 7.618-1.088 14.149-13.605 10.34-20.135 17.414-23.401 31.563-14.149zM195.215 753.902c-10.34 10.34-22.312 19.047-26.665 18.502-5.986 0-4.898-1.633 2.721-4.898 5.986-2.177 15.238-10.884 20.135-18.502 5.441-7.618 12.517-14.149 15.781-14.149 3.81 0-1.633 8.707-11.972 19.047zM282.83 744.649c-3.81 1.088-9.795-0.544-12.517-3.265-4.354-4.354-2.177-4.898 7.074-2.721 7.074 2.177 9.795 4.354 5.441 5.986zM307.863 738.119c-1.633 1.633-6.53 2.177-10.34 0.544-4.354-1.633-2.721-3.265 3.265-3.265 5.986-0.544 9.251 1.088 7.074 2.721zM665.942 751.18c-4.898 8.707-9.795 16.325-11.428 16.325-1.088 0 1.088-7.618 5.986-16.325 4.898-9.251 9.795-16.325 11.428-16.325 1.088 0-1.088 7.074-5.986 16.325zM221.336 751.18c-3.81 5.441-7.618 9.251-9.251 8.163-2.177-2.177 9.795-19.047 13.605-19.047 1.088 0-0.544 4.898-4.354 10.884zM127.19 756.622c13.605 5.986-0.544 5.986-19.047 0-10.884-3.265-11.428-4.354-2.721-4.354 5.986 0 15.781 1.633 21.768 4.354zM293.714 818.66c4.354-2.177 4.354-0.544 0.544 7.074-3.265 5.986-4.354 15.781-2.721 22.312s1.633 11.972 0 11.972c-1.633 0-17.958-17.414-36.46-38.637l-33.196-38.637 11.972-13.061 11.972-12.517 20.679 32.652c12.517 19.047 23.945 31.019 27.209 28.842zM632.202 782.744c24.489 13.061 25.578 14.694 14.149 18.502-24.489 9.251-43.536 2.721-63.127-21.224l-19.047-22.856 21.224 5.986c11.428 2.721 32.652 11.972 46.8 19.591zM155.488 765.329c-1.633 1.633-6.53 2.177-10.34 0.544-4.354-1.633-2.721-3.265 3.265-3.265 5.986-0.544 9.251 1.088 7.074 2.721zM517.921 825.735c-4.898 7.074-10.34 12.517-12.517 12.517-4.898 0-14.149-21.768-19.591-45.713l-3.81-16.325 21.768 18.502c21.224 17.958 21.768 19.047 14.149 31.019zM806.888 814.307c4.354 10.884-21.224 36.46-33.74 33.74-13.061-2.721-14.694-19.591-3.265-32.108s32.652-13.605 37.005-1.633zM318.747 814.307c-1.633 1.633-6.53 2.177-10.34 0.544-4.354-1.633-2.721-3.265 3.265-3.265 5.986-0.544 9.251 1.088 7.074 2.721zM337.249 825.735c7.074 8.707 6.53 9.251-1.633 2.177-9.251-7.074-11.972-11.428-7.618-11.428 1.088 0 5.441 4.354 9.251 9.251zM245.825 830.088c4.354 9.795-5.986 16.87-13.605 9.251-5.986-5.986-1.633-17.414 6.53-17.414 2.177 0 5.441 3.81 7.074 8.163zM489.079 838.251c3.265 5.986 4.354 10.884 3.265 10.884-1.633 0-5.441-4.898-8.707-10.884s-4.354-10.884-3.265-10.884c1.633 0 5.441 4.898 8.707 10.884zM324.733 842.605c1.633 4.898-1.088 7.074-7.618 5.441-4.898-0.544-10.34-4.898-11.972-8.707-1.633-4.898 1.088-7.074 7.618-5.441 4.898 0.544 10.34 4.898 11.972 8.707zM342.691 850.767c-5.441 4.898-5.986 4.354-2.721-3.265 1.633-5.441 4.898-8.163 6.53-6.53s0 5.986-3.81 9.795zM274.123 856.21l13.605 12.517-14.694 17.414-15.238 17.414-15.781-13.061c-21.224-17.414-15.781-32.108 17.414-46.257 1.088 0 7.618 4.898 14.694 11.972zM527.172 845.87c0 1.088-4.354 5.441-9.251 9.251-8.707 7.074-9.251 6.53-2.177-2.177s11.428-11.428 11.428-7.074zM220.247 887.773c26.665 16.87 83.806 69.112 83.806 76.732 0 2.177-9.251 6.53-20.135 9.251-19.047 5.441-21.224 4.354-58.228-25.033-21.224-16.87-40.814-32.108-42.991-34.285-5.441-4.354 1.088-43.536 6.53-43.536 2.177 0 15.781 7.618 31.019 16.87zM311.127 888.317c20.679 14.694 20.679 28.298-0.544 39.182-13.605 7.074-16.325 6.53-29.386-4.898l-14.149-12.517 11.428-16.87c6.53-9.251 12.517-16.87 13.605-16.87s9.795 5.441 19.047 11.972zM353.030 914.438c0 2.721-3.81 5.441-8.163 5.441s-8.163-2.721-8.163-5.441c0-3.265 3.81-5.441 8.163-5.441s8.163 2.177 8.163 5.441zM184.331 938.383c-6.53 6.53-7.074 30.475-1.088 39.182 2.177 3.265 9.251 8.707 16.325 12.517 10.34 5.441 15.781 4.898 31.019-4.354 25.578-15.238 34.285-4.898 12.517 15.781-29.386 27.209-85.983 2.721-85.983-37.549 0-26.121 14.149-47.344 25.033-38.093 5.441 4.354 6.53 8.163 2.177 12.517z"></path>
<path fill="#000" d="M927.155 32.844c-1.633 3.265 0.544 3.81 4.898 2.177 9.795-3.81 11.428-7.618 3.81-7.618-3.265 0-7.074 2.177-8.707 5.441z"></path>
<path fill="#000" d="M918.993 48.626c0 3.265 2.177 7.074 5.441 8.707s3.81-0.544 2.177-4.898c-3.81-9.795-7.618-11.428-7.618-3.81z"></path>
<path fill="#000" d="M664.854 121.004c-3.265 3.81-7.074 14.149-9.251 22.312-3.265 13.605-2.721 14.694 6.53 9.795 15.781-8.163 23.401-20.135 19.591-29.931-3.81-10.34-9.795-10.884-16.87-2.177z"></path>
<path fill="#000" d="M1035.993 131.344c-5.986 8.707-0.544 10.34 7.074 1.633 3.81-4.354 4.354-7.618 1.633-7.618s-7.074 2.721-8.707 5.986z"></path>
<path fill="#000" d="M1074.631 132.432c1.633 5.441 4.898 8.163 6.53 6.53s0-5.986-3.81-9.795c-5.441-4.898-5.986-4.354-2.721 3.265z"></path>
<path fill="#000" d="M195.215 149.846c-8.163 9.795-3.265 24.489 7.074 24.489 10.884 0 21.768-14.694 17.958-24.489-3.81-10.34-16.325-10.34-25.033 0z"></path>
<path fill="#000" d="M89.097 198.279c-8.707 6.53-9.251 8.707-3.265 16.325 9.251 10.884 27.209 11.428 31.019 0.544 3.265-8.163-5.986-24.489-13.605-24.489-2.177 0-8.707 3.265-14.149 7.618z"></path>
<path fill="#000" d="M750.292 174.335c-13.061 13.061-13.605 18.502-2.177 29.386 16.325 16.325 56.597 3.81 56.597-17.958 0-22.856-35.373-30.475-54.42-11.428z"></path>
<path fill="#000" d="M347.589 190.661c0 2.721 3.81 3.81 8.163 2.177 4.354-2.177 8.163-4.354 8.163-5.441s-3.81-2.177-8.163-2.177c-4.354 0-8.163 2.177-8.163 5.441z"></path>
<path fill="#000" d="M980.486 275.555c-2.721 7.618 5.986 18.502 14.694 18.502 1.633 0 5.986-2.177 10.34-4.898 10.34-6.53 3.265-22.312-10.34-22.312-5.986 0-12.517 3.81-14.694 8.707z"></path>
<path fill="#000" d="M629.482 738.664c3.265 1.088 9.795 1.088 13.605 0 3.265-1.633 0.544-2.721-7.074-2.721s-10.34 1.088-6.53 2.721z"></path>
<path fill="#000" d="M833.010 774.037c-8.163 8.163-8.707 29.931-0.544 34.285 8.707 5.441 26.665-13.605 26.665-28.298 0-13.605-14.694-17.414-26.121-5.986z"></path>
<path fill="#000" d="M361.193 860.563c-7.074 10.884 2.721 31.019 18.502 37.549 21.224 8.707 35.373 5.441 37.549-9.251 2.721-20.135-46.257-44.624-56.052-28.298z"></path>
<path fill="#000" d="M603.904 780.567c5.441 4.898 37.549 19.591 37.549 17.414 0-3.265-29.931-19.591-35.917-19.591-2.177 0-2.721 1.088-1.633 2.177z"></path>
<path fill="#000" d="M499.963 815.94c0 3.265 2.177 7.074 5.441 8.707s3.81-0.544 2.177-4.898c-3.81-9.795-7.618-11.428-7.618-3.81z"></path>
<path fill="#000" d="M774.78 821.925c-7.074 8.163-8.163 13.061-4.354 16.87 8.707 8.707 28.842-3.81 28.842-16.87 0-14.149-11.972-13.605-24.489 0z"></path>
<path fill="#000" d="M233.308 832.809c0 2.721 2.721 5.441 5.986 5.441 2.721 0 3.81-2.721 2.177-5.441-1.633-3.265-4.354-5.441-5.986-5.441-1.088 0-2.177 2.177-2.177 5.441z"></path>
<path fill="#000" d="M195.215 893.759c0 9.251 1.633 10.34 4.898 4.898 2.721-3.81 7.618-5.441 10.884-3.81 3.265 2.177 5.986 2.721 5.986 1.088s-4.898-5.441-10.884-8.707c-9.251-4.898-10.884-4.354-10.884 6.53z"></path>
<path fill="#000" d="M260.518 933.485c13.605 14.694 25.033 28.298 25.578 29.386 1.088 1.088 2.721 1.088 4.354 0 1.088-1.633-10.34-14.694-26.121-29.931l-28.298-26.665 24.489 27.209z"></path>
</svg>
