<!-- Generated by IcoMoon.io -->
<svg version="1.1" xmlns="http://www.w3.org/2000/svg" width="4260" height="1024" viewBox="0 0 4260 1024">
<g id="icomoon-ignore">
    <line stroke-width="1" x1="16" y1="0" x2="16" y2="1024" stroke="#449FDB" opacity="0.3"></line>
    <line stroke-width="1" x1="32" y1="0" x2="32" y2="1024" stroke="#449FDB" opacity="1"></line>
    <line stroke-width="1" x1="48" y1="0" x2="48" y2="1024" stroke="#449FDB" opacity="0.3"></line>
    <line stroke-width="1" x1="64" y1="0" x2="64" y2="1024" stroke="#449FDB" opacity="1"></line>
    <line stroke-width="1" x1="80" y1="0" x2="80" y2="1024" stroke="#449FDB" opacity="0.3"></line>
    <line stroke-width="1" x1="96" y1="0" x2="96" y2="1024" stroke="#449FDB" opacity="1"></line>
    <line stroke-width="1" x1="112" y1="0" x2="112" y2="1024" stroke="#449FDB" opacity="0.3"></line>
    <line stroke-width="1" x1="128" y1="0" x2="128" y2="1024" stroke="#449FDB" opacity="1"></line>
    <line stroke-width="1" x1="144" y1="0" x2="144" y2="1024" stroke="#449FDB" opacity="0.3"></line>
    <line stroke-width="1" x1="160" y1="0" x2="160" y2="1024" stroke="#449FDB" opacity="1"></line>
    <line stroke-width="1" x1="176" y1="0" x2="176" y2="1024" stroke="#449FDB" opacity="0.3"></line>
    <line stroke-width="1" x1="192" y1="0" x2="192" y2="1024" stroke="#449FDB" opacity="1"></line>
    <line stroke-width="1" x1="208" y1="0" x2="208" y2="1024" stroke="#449FDB" opacity="0.3"></line>
    <line stroke-width="1" x1="224" y1="0" x2="224" y2="1024" stroke="#449FDB" opacity="1"></line>
    <line stroke-width="1" x1="240" y1="0" x2="240" y2="1024" stroke="#449FDB" opacity="0.3"></line>
    <line stroke-width="1" x1="256" y1="0" x2="256" y2="1024" stroke="#449FDB" opacity="1"></line>
    <line stroke-width="1" x1="272" y1="0" x2="272" y2="1024" stroke="#449FDB" opacity="0.3"></line>
    <line stroke-width="1" x1="288" y1="0" x2="288" y2="1024" stroke="#449FDB" opacity="1"></line>
    <line stroke-width="1" x1="304" y1="0" x2="304" y2="1024" stroke="#449FDB" opacity="0.3"></line>
    <line stroke-width="1" x1="320" y1="0" x2="320" y2="1024" stroke="#449FDB" opacity="1"></line>
    <line stroke-width="1" x1="336" y1="0" x2="336" y2="1024" stroke="#449FDB" opacity="0.3"></line>
    <line stroke-width="1" x1="352" y1="0" x2="352" y2="1024" stroke="#449FDB" opacity="1"></line>
    <line stroke-width="1" x1="368" y1="0" x2="368" y2="1024" stroke="#449FDB" opacity="0.3"></line>
    <line stroke-width="1" x1="384" y1="0" x2="384" y2="1024" stroke="#449FDB" opacity="1"></line>
    <line stroke-width="1" x1="400" y1="0" x2="400" y2="1024" stroke="#449FDB" opacity="0.3"></line>
    <line stroke-width="1" x1="416" y1="0" x2="416" y2="1024" stroke="#449FDB" opacity="1"></line>
    <line stroke-width="1" x1="432" y1="0" x2="432" y2="1024" stroke="#449FDB" opacity="0.3"></line>
    <line stroke-width="1" x1="448" y1="0" x2="448" y2="1024" stroke="#449FDB" opacity="1"></line>
    <line stroke-width="1" x1="464" y1="0" x2="464" y2="1024" stroke="#449FDB" opacity="0.3"></line>
    <line stroke-width="1" x1="480" y1="0" x2="480" y2="1024" stroke="#449FDB" opacity="1"></line>
    <line stroke-width="1" x1="496" y1="0" x2="496" y2="1024" stroke="#449FDB" opacity="0.3"></line>
    <line stroke-width="1" x1="512" y1="0" x2="512" y2="1024" stroke="#449FDB" opacity="1"></line>
    <line stroke-width="1" x1="528" y1="0" x2="528" y2="1024" stroke="#449FDB" opacity="0.3"></line>
    <line stroke-width="1" x1="544" y1="0" x2="544" y2="1024" stroke="#449FDB" opacity="1"></line>
    <line stroke-width="1" x1="560" y1="0" x2="560" y2="1024" stroke="#449FDB" opacity="0.3"></line>
    <line stroke-width="1" x1="576" y1="0" x2="576" y2="1024" stroke="#449FDB" opacity="1"></line>
    <line stroke-width="1" x1="592" y1="0" x2="592" y2="1024" stroke="#449FDB" opacity="0.3"></line>
    <line stroke-width="1" x1="608" y1="0" x2="608" y2="1024" stroke="#449FDB" opacity="1"></line>
    <line stroke-width="1" x1="624" y1="0" x2="624" y2="1024" stroke="#449FDB" opacity="0.3"></line>
    <line stroke-width="1" x1="640" y1="0" x2="640" y2="1024" stroke="#449FDB" opacity="1"></line>
    <line stroke-width="1" x1="656" y1="0" x2="656" y2="1024" stroke="#449FDB" opacity="0.3"></line>
    <line stroke-width="1" x1="672" y1="0" x2="672" y2="1024" stroke="#449FDB" opacity="1"></line>
    <line stroke-width="1" x1="688" y1="0" x2="688" y2="1024" stroke="#449FDB" opacity="0.3"></line>
    <line stroke-width="1" x1="704" y1="0" x2="704" y2="1024" stroke="#449FDB" opacity="1"></line>
    <line stroke-width="1" x1="720" y1="0" x2="720" y2="1024" stroke="#449FDB" opacity="0.3"></line>
    <line stroke-width="1" x1="736" y1="0" x2="736" y2="1024" stroke="#449FDB" opacity="1"></line>
    <line stroke-width="1" x1="752" y1="0" x2="752" y2="1024" stroke="#449FDB" opacity="0.3"></line>
    <line stroke-width="1" x1="768" y1="0" x2="768" y2="1024" stroke="#449FDB" opacity="1"></line>
    <line stroke-width="1" x1="784" y1="0" x2="784" y2="1024" stroke="#449FDB" opacity="0.3"></line>
    <line stroke-width="1" x1="800" y1="0" x2="800" y2="1024" stroke="#449FDB" opacity="1"></line>
    <line stroke-width="1" x1="816" y1="0" x2="816" y2="1024" stroke="#449FDB" opacity="0.3"></line>
    <line stroke-width="1" x1="832" y1="0" x2="832" y2="1024" stroke="#449FDB" opacity="1"></line>
    <line stroke-width="1" x1="848" y1="0" x2="848" y2="1024" stroke="#449FDB" opacity="0.3"></line>
    <line stroke-width="1" x1="864" y1="0" x2="864" y2="1024" stroke="#449FDB" opacity="1"></line>
    <line stroke-width="1" x1="880" y1="0" x2="880" y2="1024" stroke="#449FDB" opacity="0.3"></line>
    <line stroke-width="1" x1="896" y1="0" x2="896" y2="1024" stroke="#449FDB" opacity="1"></line>
    <line stroke-width="1" x1="912" y1="0" x2="912" y2="1024" stroke="#449FDB" opacity="0.3"></line>
    <line stroke-width="1" x1="928" y1="0" x2="928" y2="1024" stroke="#449FDB" opacity="1"></line>
    <line stroke-width="1" x1="944" y1="0" x2="944" y2="1024" stroke="#449FDB" opacity="0.3"></line>
    <line stroke-width="1" x1="960" y1="0" x2="960" y2="1024" stroke="#449FDB" opacity="1"></line>
    <line stroke-width="1" x1="976" y1="0" x2="976" y2="1024" stroke="#449FDB" opacity="0.3"></line>
    <line stroke-width="1" x1="992" y1="0" x2="992" y2="1024" stroke="#449FDB" opacity="1"></line>
    <line stroke-width="1" x1="1008" y1="0" x2="1008" y2="1024" stroke="#449FDB" opacity="0.3"></line>
    <line stroke-width="1" x1="1024" y1="0" x2="1024" y2="1024" stroke="#449FDB" opacity="1"></line>
    <line stroke-width="1" x1="1040" y1="0" x2="1040" y2="1024" stroke="#449FDB" opacity="0.3"></line>
    <line stroke-width="1" x1="1056" y1="0" x2="1056" y2="1024" stroke="#449FDB" opacity="1"></line>
    <line stroke-width="1" x1="1072" y1="0" x2="1072" y2="1024" stroke="#449FDB" opacity="0.3"></line>
    <line stroke-width="1" x1="1088" y1="0" x2="1088" y2="1024" stroke="#449FDB" opacity="1"></line>
    <line stroke-width="1" x1="1104" y1="0" x2="1104" y2="1024" stroke="#449FDB" opacity="0.3"></line>
    <line stroke-width="1" x1="1120" y1="0" x2="1120" y2="1024" stroke="#449FDB" opacity="1"></line>
    <line stroke-width="1" x1="1136" y1="0" x2="1136" y2="1024" stroke="#449FDB" opacity="0.3"></line>
    <line stroke-width="1" x1="1152" y1="0" x2="1152" y2="1024" stroke="#449FDB" opacity="1"></line>
    <line stroke-width="1" x1="1168" y1="0" x2="1168" y2="1024" stroke="#449FDB" opacity="0.3"></line>
    <line stroke-width="1" x1="1184" y1="0" x2="1184" y2="1024" stroke="#449FDB" opacity="1"></line>
    <line stroke-width="1" x1="1200" y1="0" x2="1200" y2="1024" stroke="#449FDB" opacity="0.3"></line>
    <line stroke-width="1" x1="1216" y1="0" x2="1216" y2="1024" stroke="#449FDB" opacity="1"></line>
    <line stroke-width="1" x1="1232" y1="0" x2="1232" y2="1024" stroke="#449FDB" opacity="0.3"></line>
    <line stroke-width="1" x1="1248" y1="0" x2="1248" y2="1024" stroke="#449FDB" opacity="1"></line>
    <line stroke-width="1" x1="1264" y1="0" x2="1264" y2="1024" stroke="#449FDB" opacity="0.3"></line>
    <line stroke-width="1" x1="1280" y1="0" x2="1280" y2="1024" stroke="#449FDB" opacity="1"></line>
    <line stroke-width="1" x1="1296" y1="0" x2="1296" y2="1024" stroke="#449FDB" opacity="0.3"></line>
    <line stroke-width="1" x1="1312" y1="0" x2="1312" y2="1024" stroke="#449FDB" opacity="1"></line>
    <line stroke-width="1" x1="1328" y1="0" x2="1328" y2="1024" stroke="#449FDB" opacity="0.3"></line>
    <line stroke-width="1" x1="1344" y1="0" x2="1344" y2="1024" stroke="#449FDB" opacity="1"></line>
    <line stroke-width="1" x1="1360" y1="0" x2="1360" y2="1024" stroke="#449FDB" opacity="0.3"></line>
    <line stroke-width="1" x1="1376" y1="0" x2="1376" y2="1024" stroke="#449FDB" opacity="1"></line>
    <line stroke-width="1" x1="1392" y1="0" x2="1392" y2="1024" stroke="#449FDB" opacity="0.3"></line>
    <line stroke-width="1" x1="1408" y1="0" x2="1408" y2="1024" stroke="#449FDB" opacity="1"></line>
    <line stroke-width="1" x1="1424" y1="0" x2="1424" y2="1024" stroke="#449FDB" opacity="0.3"></line>
    <line stroke-width="1" x1="1440" y1="0" x2="1440" y2="1024" stroke="#449FDB" opacity="1"></line>
    <line stroke-width="1" x1="1456" y1="0" x2="1456" y2="1024" stroke="#449FDB" opacity="0.3"></line>
    <line stroke-width="1" x1="1472" y1="0" x2="1472" y2="1024" stroke="#449FDB" opacity="1"></line>
    <line stroke-width="1" x1="1488" y1="0" x2="1488" y2="1024" stroke="#449FDB" opacity="0.3"></line>
    <line stroke-width="1" x1="1504" y1="0" x2="1504" y2="1024" stroke="#449FDB" opacity="1"></line>
    <line stroke-width="1" x1="1520" y1="0" x2="1520" y2="1024" stroke="#449FDB" opacity="0.3"></line>
    <line stroke-width="1" x1="1536" y1="0" x2="1536" y2="1024" stroke="#449FDB" opacity="1"></line>
    <line stroke-width="1" x1="1552" y1="0" x2="1552" y2="1024" stroke="#449FDB" opacity="0.3"></line>
    <line stroke-width="1" x1="1568" y1="0" x2="1568" y2="1024" stroke="#449FDB" opacity="1"></line>
    <line stroke-width="1" x1="1584" y1="0" x2="1584" y2="1024" stroke="#449FDB" opacity="0.3"></line>
    <line stroke-width="1" x1="1600" y1="0" x2="1600" y2="1024" stroke="#449FDB" opacity="1"></line>
    <line stroke-width="1" x1="1616" y1="0" x2="1616" y2="1024" stroke="#449FDB" opacity="0.3"></line>
    <line stroke-width="1" x1="1632" y1="0" x2="1632" y2="1024" stroke="#449FDB" opacity="1"></line>
    <line stroke-width="1" x1="1648" y1="0" x2="1648" y2="1024" stroke="#449FDB" opacity="0.3"></line>
    <line stroke-width="1" x1="1664" y1="0" x2="1664" y2="1024" stroke="#449FDB" opacity="1"></line>
    <line stroke-width="1" x1="1680" y1="0" x2="1680" y2="1024" stroke="#449FDB" opacity="0.3"></line>
    <line stroke-width="1" x1="1696" y1="0" x2="1696" y2="1024" stroke="#449FDB" opacity="1"></line>
    <line stroke-width="1" x1="1712" y1="0" x2="1712" y2="1024" stroke="#449FDB" opacity="0.3"></line>
    <line stroke-width="1" x1="1728" y1="0" x2="1728" y2="1024" stroke="#449FDB" opacity="1"></line>
    <line stroke-width="1" x1="1744" y1="0" x2="1744" y2="1024" stroke="#449FDB" opacity="0.3"></line>
    <line stroke-width="1" x1="1760" y1="0" x2="1760" y2="1024" stroke="#449FDB" opacity="1"></line>
    <line stroke-width="1" x1="1776" y1="0" x2="1776" y2="1024" stroke="#449FDB" opacity="0.3"></line>
    <line stroke-width="1" x1="1792" y1="0" x2="1792" y2="1024" stroke="#449FDB" opacity="1"></line>
    <line stroke-width="1" x1="1808" y1="0" x2="1808" y2="1024" stroke="#449FDB" opacity="0.3"></line>
    <line stroke-width="1" x1="1824" y1="0" x2="1824" y2="1024" stroke="#449FDB" opacity="1"></line>
    <line stroke-width="1" x1="1840" y1="0" x2="1840" y2="1024" stroke="#449FDB" opacity="0.3"></line>
    <line stroke-width="1" x1="1856" y1="0" x2="1856" y2="1024" stroke="#449FDB" opacity="1"></line>
    <line stroke-width="1" x1="1872" y1="0" x2="1872" y2="1024" stroke="#449FDB" opacity="0.3"></line>
    <line stroke-width="1" x1="1888" y1="0" x2="1888" y2="1024" stroke="#449FDB" opacity="1"></line>
    <line stroke-width="1" x1="1904" y1="0" x2="1904" y2="1024" stroke="#449FDB" opacity="0.3"></line>
    <line stroke-width="1" x1="1920" y1="0" x2="1920" y2="1024" stroke="#449FDB" opacity="1"></line>
    <line stroke-width="1" x1="1936" y1="0" x2="1936" y2="1024" stroke="#449FDB" opacity="0.3"></line>
    <line stroke-width="1" x1="1952" y1="0" x2="1952" y2="1024" stroke="#449FDB" opacity="1"></line>
    <line stroke-width="1" x1="1968" y1="0" x2="1968" y2="1024" stroke="#449FDB" opacity="0.3"></line>
    <line stroke-width="1" x1="1984" y1="0" x2="1984" y2="1024" stroke="#449FDB" opacity="1"></line>
    <line stroke-width="1" x1="2000" y1="0" x2="2000" y2="1024" stroke="#449FDB" opacity="0.3"></line>
    <line stroke-width="1" x1="2016" y1="0" x2="2016" y2="1024" stroke="#449FDB" opacity="1"></line>
    <line stroke-width="1" x1="2032" y1="0" x2="2032" y2="1024" stroke="#449FDB" opacity="0.3"></line>
    <line stroke-width="1" x1="2048" y1="0" x2="2048" y2="1024" stroke="#449FDB" opacity="1"></line>
    <line stroke-width="1" x1="2064" y1="0" x2="2064" y2="1024" stroke="#449FDB" opacity="0.3"></line>
    <line stroke-width="1" x1="2080" y1="0" x2="2080" y2="1024" stroke="#449FDB" opacity="1"></line>
    <line stroke-width="1" x1="2096" y1="0" x2="2096" y2="1024" stroke="#449FDB" opacity="0.3"></line>
    <line stroke-width="1" x1="2112" y1="0" x2="2112" y2="1024" stroke="#449FDB" opacity="1"></line>
    <line stroke-width="1" x1="2128" y1="0" x2="2128" y2="1024" stroke="#449FDB" opacity="0.3"></line>
    <line stroke-width="1" x1="2144" y1="0" x2="2144" y2="1024" stroke="#449FDB" opacity="1"></line>
    <line stroke-width="1" x1="2160" y1="0" x2="2160" y2="1024" stroke="#449FDB" opacity="0.3"></line>
    <line stroke-width="1" x1="2176" y1="0" x2="2176" y2="1024" stroke="#449FDB" opacity="1"></line>
    <line stroke-width="1" x1="2192" y1="0" x2="2192" y2="1024" stroke="#449FDB" opacity="0.3"></line>
    <line stroke-width="1" x1="2208" y1="0" x2="2208" y2="1024" stroke="#449FDB" opacity="1"></line>
    <line stroke-width="1" x1="2224" y1="0" x2="2224" y2="1024" stroke="#449FDB" opacity="0.3"></line>
    <line stroke-width="1" x1="2240" y1="0" x2="2240" y2="1024" stroke="#449FDB" opacity="1"></line>
    <line stroke-width="1" x1="2256" y1="0" x2="2256" y2="1024" stroke="#449FDB" opacity="0.3"></line>
    <line stroke-width="1" x1="2272" y1="0" x2="2272" y2="1024" stroke="#449FDB" opacity="1"></line>
    <line stroke-width="1" x1="2288" y1="0" x2="2288" y2="1024" stroke="#449FDB" opacity="0.3"></line>
    <line stroke-width="1" x1="2304" y1="0" x2="2304" y2="1024" stroke="#449FDB" opacity="1"></line>
    <line stroke-width="1" x1="2320" y1="0" x2="2320" y2="1024" stroke="#449FDB" opacity="0.3"></line>
    <line stroke-width="1" x1="2336" y1="0" x2="2336" y2="1024" stroke="#449FDB" opacity="1"></line>
    <line stroke-width="1" x1="2352" y1="0" x2="2352" y2="1024" stroke="#449FDB" opacity="0.3"></line>
    <line stroke-width="1" x1="2368" y1="0" x2="2368" y2="1024" stroke="#449FDB" opacity="1"></line>
    <line stroke-width="1" x1="2384" y1="0" x2="2384" y2="1024" stroke="#449FDB" opacity="0.3"></line>
    <line stroke-width="1" x1="2400" y1="0" x2="2400" y2="1024" stroke="#449FDB" opacity="1"></line>
    <line stroke-width="1" x1="2416" y1="0" x2="2416" y2="1024" stroke="#449FDB" opacity="0.3"></line>
    <line stroke-width="1" x1="2432" y1="0" x2="2432" y2="1024" stroke="#449FDB" opacity="1"></line>
    <line stroke-width="1" x1="2448" y1="0" x2="2448" y2="1024" stroke="#449FDB" opacity="0.3"></line>
    <line stroke-width="1" x1="2464" y1="0" x2="2464" y2="1024" stroke="#449FDB" opacity="1"></line>
    <line stroke-width="1" x1="2480" y1="0" x2="2480" y2="1024" stroke="#449FDB" opacity="0.3"></line>
    <line stroke-width="1" x1="2496" y1="0" x2="2496" y2="1024" stroke="#449FDB" opacity="1"></line>
    <line stroke-width="1" x1="2512" y1="0" x2="2512" y2="1024" stroke="#449FDB" opacity="0.3"></line>
    <line stroke-width="1" x1="2528" y1="0" x2="2528" y2="1024" stroke="#449FDB" opacity="1"></line>
    <line stroke-width="1" x1="2544" y1="0" x2="2544" y2="1024" stroke="#449FDB" opacity="0.3"></line>
    <line stroke-width="1" x1="2560" y1="0" x2="2560" y2="1024" stroke="#449FDB" opacity="1"></line>
    <line stroke-width="1" x1="2576" y1="0" x2="2576" y2="1024" stroke="#449FDB" opacity="0.3"></line>
    <line stroke-width="1" x1="2592" y1="0" x2="2592" y2="1024" stroke="#449FDB" opacity="1"></line>
    <line stroke-width="1" x1="2608" y1="0" x2="2608" y2="1024" stroke="#449FDB" opacity="0.3"></line>
    <line stroke-width="1" x1="2624" y1="0" x2="2624" y2="1024" stroke="#449FDB" opacity="1"></line>
    <line stroke-width="1" x1="2640" y1="0" x2="2640" y2="1024" stroke="#449FDB" opacity="0.3"></line>
    <line stroke-width="1" x1="2656" y1="0" x2="2656" y2="1024" stroke="#449FDB" opacity="1"></line>
    <line stroke-width="1" x1="2672" y1="0" x2="2672" y2="1024" stroke="#449FDB" opacity="0.3"></line>
    <line stroke-width="1" x1="2688" y1="0" x2="2688" y2="1024" stroke="#449FDB" opacity="1"></line>
    <line stroke-width="1" x1="2704" y1="0" x2="2704" y2="1024" stroke="#449FDB" opacity="0.3"></line>
    <line stroke-width="1" x1="2720" y1="0" x2="2720" y2="1024" stroke="#449FDB" opacity="1"></line>
    <line stroke-width="1" x1="2736" y1="0" x2="2736" y2="1024" stroke="#449FDB" opacity="0.3"></line>
    <line stroke-width="1" x1="2752" y1="0" x2="2752" y2="1024" stroke="#449FDB" opacity="1"></line>
    <line stroke-width="1" x1="2768" y1="0" x2="2768" y2="1024" stroke="#449FDB" opacity="0.3"></line>
    <line stroke-width="1" x1="2784" y1="0" x2="2784" y2="1024" stroke="#449FDB" opacity="1"></line>
    <line stroke-width="1" x1="2800" y1="0" x2="2800" y2="1024" stroke="#449FDB" opacity="0.3"></line>
    <line stroke-width="1" x1="2816" y1="0" x2="2816" y2="1024" stroke="#449FDB" opacity="1"></line>
    <line stroke-width="1" x1="2832" y1="0" x2="2832" y2="1024" stroke="#449FDB" opacity="0.3"></line>
    <line stroke-width="1" x1="2848" y1="0" x2="2848" y2="1024" stroke="#449FDB" opacity="1"></line>
    <line stroke-width="1" x1="2864" y1="0" x2="2864" y2="1024" stroke="#449FDB" opacity="0.3"></line>
    <line stroke-width="1" x1="2880" y1="0" x2="2880" y2="1024" stroke="#449FDB" opacity="1"></line>
    <line stroke-width="1" x1="2896" y1="0" x2="2896" y2="1024" stroke="#449FDB" opacity="0.3"></line>
    <line stroke-width="1" x1="2912" y1="0" x2="2912" y2="1024" stroke="#449FDB" opacity="1"></line>
    <line stroke-width="1" x1="2928" y1="0" x2="2928" y2="1024" stroke="#449FDB" opacity="0.3"></line>
    <line stroke-width="1" x1="2944" y1="0" x2="2944" y2="1024" stroke="#449FDB" opacity="1"></line>
    <line stroke-width="1" x1="2960" y1="0" x2="2960" y2="1024" stroke="#449FDB" opacity="0.3"></line>
    <line stroke-width="1" x1="2976" y1="0" x2="2976" y2="1024" stroke="#449FDB" opacity="1"></line>
    <line stroke-width="1" x1="2992" y1="0" x2="2992" y2="1024" stroke="#449FDB" opacity="0.3"></line>
    <line stroke-width="1" x1="3008" y1="0" x2="3008" y2="1024" stroke="#449FDB" opacity="1"></line>
    <line stroke-width="1" x1="3024" y1="0" x2="3024" y2="1024" stroke="#449FDB" opacity="0.3"></line>
    <line stroke-width="1" x1="3040" y1="0" x2="3040" y2="1024" stroke="#449FDB" opacity="1"></line>
    <line stroke-width="1" x1="3056" y1="0" x2="3056" y2="1024" stroke="#449FDB" opacity="0.3"></line>
    <line stroke-width="1" x1="3072" y1="0" x2="3072" y2="1024" stroke="#449FDB" opacity="1"></line>
    <line stroke-width="1" x1="3088" y1="0" x2="3088" y2="1024" stroke="#449FDB" opacity="0.3"></line>
    <line stroke-width="1" x1="3104" y1="0" x2="3104" y2="1024" stroke="#449FDB" opacity="1"></line>
    <line stroke-width="1" x1="3120" y1="0" x2="3120" y2="1024" stroke="#449FDB" opacity="0.3"></line>
    <line stroke-width="1" x1="3136" y1="0" x2="3136" y2="1024" stroke="#449FDB" opacity="1"></line>
    <line stroke-width="1" x1="3152" y1="0" x2="3152" y2="1024" stroke="#449FDB" opacity="0.3"></line>
    <line stroke-width="1" x1="3168" y1="0" x2="3168" y2="1024" stroke="#449FDB" opacity="1"></line>
    <line stroke-width="1" x1="3184" y1="0" x2="3184" y2="1024" stroke="#449FDB" opacity="0.3"></line>
    <line stroke-width="1" x1="3200" y1="0" x2="3200" y2="1024" stroke="#449FDB" opacity="1"></line>
    <line stroke-width="1" x1="3216" y1="0" x2="3216" y2="1024" stroke="#449FDB" opacity="0.3"></line>
    <line stroke-width="1" x1="3232" y1="0" x2="3232" y2="1024" stroke="#449FDB" opacity="1"></line>
    <line stroke-width="1" x1="3248" y1="0" x2="3248" y2="1024" stroke="#449FDB" opacity="0.3"></line>
    <line stroke-width="1" x1="3264" y1="0" x2="3264" y2="1024" stroke="#449FDB" opacity="1"></line>
    <line stroke-width="1" x1="3280" y1="0" x2="3280" y2="1024" stroke="#449FDB" opacity="0.3"></line>
    <line stroke-width="1" x1="3296" y1="0" x2="3296" y2="1024" stroke="#449FDB" opacity="1"></line>
    <line stroke-width="1" x1="3312" y1="0" x2="3312" y2="1024" stroke="#449FDB" opacity="0.3"></line>
    <line stroke-width="1" x1="3328" y1="0" x2="3328" y2="1024" stroke="#449FDB" opacity="1"></line>
    <line stroke-width="1" x1="3344" y1="0" x2="3344" y2="1024" stroke="#449FDB" opacity="0.3"></line>
    <line stroke-width="1" x1="3360" y1="0" x2="3360" y2="1024" stroke="#449FDB" opacity="1"></line>
    <line stroke-width="1" x1="3376" y1="0" x2="3376" y2="1024" stroke="#449FDB" opacity="0.3"></line>
    <line stroke-width="1" x1="3392" y1="0" x2="3392" y2="1024" stroke="#449FDB" opacity="1"></line>
    <line stroke-width="1" x1="3408" y1="0" x2="3408" y2="1024" stroke="#449FDB" opacity="0.3"></line>
    <line stroke-width="1" x1="3424" y1="0" x2="3424" y2="1024" stroke="#449FDB" opacity="1"></line>
    <line stroke-width="1" x1="3440" y1="0" x2="3440" y2="1024" stroke="#449FDB" opacity="0.3"></line>
    <line stroke-width="1" x1="3456" y1="0" x2="3456" y2="1024" stroke="#449FDB" opacity="1"></line>
    <line stroke-width="1" x1="3472" y1="0" x2="3472" y2="1024" stroke="#449FDB" opacity="0.3"></line>
    <line stroke-width="1" x1="3488" y1="0" x2="3488" y2="1024" stroke="#449FDB" opacity="1"></line>
    <line stroke-width="1" x1="3504" y1="0" x2="3504" y2="1024" stroke="#449FDB" opacity="0.3"></line>
    <line stroke-width="1" x1="3520" y1="0" x2="3520" y2="1024" stroke="#449FDB" opacity="1"></line>
    <line stroke-width="1" x1="3536" y1="0" x2="3536" y2="1024" stroke="#449FDB" opacity="0.3"></line>
    <line stroke-width="1" x1="3552" y1="0" x2="3552" y2="1024" stroke="#449FDB" opacity="1"></line>
    <line stroke-width="1" x1="3568" y1="0" x2="3568" y2="1024" stroke="#449FDB" opacity="0.3"></line>
    <line stroke-width="1" x1="3584" y1="0" x2="3584" y2="1024" stroke="#449FDB" opacity="1"></line>
    <line stroke-width="1" x1="3600" y1="0" x2="3600" y2="1024" stroke="#449FDB" opacity="0.3"></line>
    <line stroke-width="1" x1="3616" y1="0" x2="3616" y2="1024" stroke="#449FDB" opacity="1"></line>
    <line stroke-width="1" x1="3632" y1="0" x2="3632" y2="1024" stroke="#449FDB" opacity="0.3"></line>
    <line stroke-width="1" x1="3648" y1="0" x2="3648" y2="1024" stroke="#449FDB" opacity="1"></line>
    <line stroke-width="1" x1="3664" y1="0" x2="3664" y2="1024" stroke="#449FDB" opacity="0.3"></line>
    <line stroke-width="1" x1="3680" y1="0" x2="3680" y2="1024" stroke="#449FDB" opacity="1"></line>
    <line stroke-width="1" x1="3696" y1="0" x2="3696" y2="1024" stroke="#449FDB" opacity="0.3"></line>
    <line stroke-width="1" x1="3712" y1="0" x2="3712" y2="1024" stroke="#449FDB" opacity="1"></line>
    <line stroke-width="1" x1="3728" y1="0" x2="3728" y2="1024" stroke="#449FDB" opacity="0.3"></line>
    <line stroke-width="1" x1="3744" y1="0" x2="3744" y2="1024" stroke="#449FDB" opacity="1"></line>
    <line stroke-width="1" x1="3760" y1="0" x2="3760" y2="1024" stroke="#449FDB" opacity="0.3"></line>
    <line stroke-width="1" x1="3776" y1="0" x2="3776" y2="1024" stroke="#449FDB" opacity="1"></line>
    <line stroke-width="1" x1="3792" y1="0" x2="3792" y2="1024" stroke="#449FDB" opacity="0.3"></line>
    <line stroke-width="1" x1="3808" y1="0" x2="3808" y2="1024" stroke="#449FDB" opacity="1"></line>
    <line stroke-width="1" x1="3824" y1="0" x2="3824" y2="1024" stroke="#449FDB" opacity="0.3"></line>
    <line stroke-width="1" x1="3840" y1="0" x2="3840" y2="1024" stroke="#449FDB" opacity="1"></line>
    <line stroke-width="1" x1="3856" y1="0" x2="3856" y2="1024" stroke="#449FDB" opacity="0.3"></line>
    <line stroke-width="1" x1="3872" y1="0" x2="3872" y2="1024" stroke="#449FDB" opacity="1"></line>
    <line stroke-width="1" x1="3888" y1="0" x2="3888" y2="1024" stroke="#449FDB" opacity="0.3"></line>
    <line stroke-width="1" x1="3904" y1="0" x2="3904" y2="1024" stroke="#449FDB" opacity="1"></line>
    <line stroke-width="1" x1="3920" y1="0" x2="3920" y2="1024" stroke="#449FDB" opacity="0.3"></line>
    <line stroke-width="1" x1="3936" y1="0" x2="3936" y2="1024" stroke="#449FDB" opacity="1"></line>
    <line stroke-width="1" x1="3952" y1="0" x2="3952" y2="1024" stroke="#449FDB" opacity="0.3"></line>
    <line stroke-width="1" x1="3968" y1="0" x2="3968" y2="1024" stroke="#449FDB" opacity="1"></line>
    <line stroke-width="1" x1="3984" y1="0" x2="3984" y2="1024" stroke="#449FDB" opacity="0.3"></line>
    <line stroke-width="1" x1="4000" y1="0" x2="4000" y2="1024" stroke="#449FDB" opacity="1"></line>
    <line stroke-width="1" x1="4016" y1="0" x2="4016" y2="1024" stroke="#449FDB" opacity="0.3"></line>
    <line stroke-width="1" x1="4032" y1="0" x2="4032" y2="1024" stroke="#449FDB" opacity="1"></line>
    <line stroke-width="1" x1="4048" y1="0" x2="4048" y2="1024" stroke="#449FDB" opacity="0.3"></line>
    <line stroke-width="1" x1="4064" y1="0" x2="4064" y2="1024" stroke="#449FDB" opacity="1"></line>
    <line stroke-width="1" x1="4080" y1="0" x2="4080" y2="1024" stroke="#449FDB" opacity="0.3"></line>
    <line stroke-width="1" x1="4096" y1="0" x2="4096" y2="1024" stroke="#449FDB" opacity="1"></line>
    <line stroke-width="1" x1="4112" y1="0" x2="4112" y2="1024" stroke="#449FDB" opacity="0.3"></line>
    <line stroke-width="1" x1="4128" y1="0" x2="4128" y2="1024" stroke="#449FDB" opacity="1"></line>
    <line stroke-width="1" x1="4144" y1="0" x2="4144" y2="1024" stroke="#449FDB" opacity="0.3"></line>
    <line stroke-width="1" x1="4160" y1="0" x2="4160" y2="1024" stroke="#449FDB" opacity="1"></line>
    <line stroke-width="1" x1="4176" y1="0" x2="4176" y2="1024" stroke="#449FDB" opacity="0.3"></line>
    <line stroke-width="1" x1="4192" y1="0" x2="4192" y2="1024" stroke="#449FDB" opacity="1"></line>
    <line stroke-width="1" x1="4208" y1="0" x2="4208" y2="1024" stroke="#449FDB" opacity="0.3"></line>
    <line stroke-width="1" x1="4224" y1="0" x2="4224" y2="1024" stroke="#449FDB" opacity="1"></line>
    <line stroke-width="1" x1="4240" y1="0" x2="4240" y2="1024" stroke="#449FDB" opacity="0.3"></line>
    <line stroke-width="1" x1="4256" y1="0" x2="4256" y2="1024" stroke="#449FDB" opacity="1"></line>
    <line stroke-width="1" x1="0" y1="16" x2="4260" y2="16" stroke="#449FDB" opacity="0.3"></line>
    <line stroke-width="1" x1="0" y1="32" x2="4260" y2="32" stroke="#449FDB" opacity="1"></line>
    <line stroke-width="1" x1="0" y1="48" x2="4260" y2="48" stroke="#449FDB" opacity="0.3"></line>
    <line stroke-width="1" x1="0" y1="64" x2="4260" y2="64" stroke="#449FDB" opacity="1"></line>
    <line stroke-width="1" x1="0" y1="80" x2="4260" y2="80" stroke="#449FDB" opacity="0.3"></line>
    <line stroke-width="1" x1="0" y1="96" x2="4260" y2="96" stroke="#449FDB" opacity="1"></line>
    <line stroke-width="1" x1="0" y1="112" x2="4260" y2="112" stroke="#449FDB" opacity="0.3"></line>
    <line stroke-width="1" x1="0" y1="128" x2="4260" y2="128" stroke="#449FDB" opacity="1"></line>
    <line stroke-width="1" x1="0" y1="144" x2="4260" y2="144" stroke="#449FDB" opacity="0.3"></line>
    <line stroke-width="1" x1="0" y1="160" x2="4260" y2="160" stroke="#449FDB" opacity="1"></line>
    <line stroke-width="1" x1="0" y1="176" x2="4260" y2="176" stroke="#449FDB" opacity="0.3"></line>
    <line stroke-width="1" x1="0" y1="192" x2="4260" y2="192" stroke="#449FDB" opacity="1"></line>
    <line stroke-width="1" x1="0" y1="208" x2="4260" y2="208" stroke="#449FDB" opacity="0.3"></line>
    <line stroke-width="1" x1="0" y1="224" x2="4260" y2="224" stroke="#449FDB" opacity="1"></line>
    <line stroke-width="1" x1="0" y1="240" x2="4260" y2="240" stroke="#449FDB" opacity="0.3"></line>
    <line stroke-width="1" x1="0" y1="256" x2="4260" y2="256" stroke="#449FDB" opacity="1"></line>
    <line stroke-width="1" x1="0" y1="272" x2="4260" y2="272" stroke="#449FDB" opacity="0.3"></line>
    <line stroke-width="1" x1="0" y1="288" x2="4260" y2="288" stroke="#449FDB" opacity="1"></line>
    <line stroke-width="1" x1="0" y1="304" x2="4260" y2="304" stroke="#449FDB" opacity="0.3"></line>
    <line stroke-width="1" x1="0" y1="320" x2="4260" y2="320" stroke="#449FDB" opacity="1"></line>
    <line stroke-width="1" x1="0" y1="336" x2="4260" y2="336" stroke="#449FDB" opacity="0.3"></line>
    <line stroke-width="1" x1="0" y1="352" x2="4260" y2="352" stroke="#449FDB" opacity="1"></line>
    <line stroke-width="1" x1="0" y1="368" x2="4260" y2="368" stroke="#449FDB" opacity="0.3"></line>
    <line stroke-width="1" x1="0" y1="384" x2="4260" y2="384" stroke="#449FDB" opacity="1"></line>
    <line stroke-width="1" x1="0" y1="400" x2="4260" y2="400" stroke="#449FDB" opacity="0.3"></line>
    <line stroke-width="1" x1="0" y1="416" x2="4260" y2="416" stroke="#449FDB" opacity="1"></line>
    <line stroke-width="1" x1="0" y1="432" x2="4260" y2="432" stroke="#449FDB" opacity="0.3"></line>
    <line stroke-width="1" x1="0" y1="448" x2="4260" y2="448" stroke="#449FDB" opacity="1"></line>
    <line stroke-width="1" x1="0" y1="464" x2="4260" y2="464" stroke="#449FDB" opacity="0.3"></line>
    <line stroke-width="1" x1="0" y1="480" x2="4260" y2="480" stroke="#449FDB" opacity="1"></line>
    <line stroke-width="1" x1="0" y1="496" x2="4260" y2="496" stroke="#449FDB" opacity="0.3"></line>
    <line stroke-width="1" x1="0" y1="512" x2="4260" y2="512" stroke="#449FDB" opacity="1"></line>
    <line stroke-width="1" x1="0" y1="528" x2="4260" y2="528" stroke="#449FDB" opacity="0.3"></line>
    <line stroke-width="1" x1="0" y1="544" x2="4260" y2="544" stroke="#449FDB" opacity="1"></line>
    <line stroke-width="1" x1="0" y1="560" x2="4260" y2="560" stroke="#449FDB" opacity="0.3"></line>
    <line stroke-width="1" x1="0" y1="576" x2="4260" y2="576" stroke="#449FDB" opacity="1"></line>
    <line stroke-width="1" x1="0" y1="592" x2="4260" y2="592" stroke="#449FDB" opacity="0.3"></line>
    <line stroke-width="1" x1="0" y1="608" x2="4260" y2="608" stroke="#449FDB" opacity="1"></line>
    <line stroke-width="1" x1="0" y1="624" x2="4260" y2="624" stroke="#449FDB" opacity="0.3"></line>
    <line stroke-width="1" x1="0" y1="640" x2="4260" y2="640" stroke="#449FDB" opacity="1"></line>
    <line stroke-width="1" x1="0" y1="656" x2="4260" y2="656" stroke="#449FDB" opacity="0.3"></line>
    <line stroke-width="1" x1="0" y1="672" x2="4260" y2="672" stroke="#449FDB" opacity="1"></line>
    <line stroke-width="1" x1="0" y1="688" x2="4260" y2="688" stroke="#449FDB" opacity="0.3"></line>
    <line stroke-width="1" x1="0" y1="704" x2="4260" y2="704" stroke="#449FDB" opacity="1"></line>
    <line stroke-width="1" x1="0" y1="720" x2="4260" y2="720" stroke="#449FDB" opacity="0.3"></line>
    <line stroke-width="1" x1="0" y1="736" x2="4260" y2="736" stroke="#449FDB" opacity="1"></line>
    <line stroke-width="1" x1="0" y1="752" x2="4260" y2="752" stroke="#449FDB" opacity="0.3"></line>
    <line stroke-width="1" x1="0" y1="768" x2="4260" y2="768" stroke="#449FDB" opacity="1"></line>
    <line stroke-width="1" x1="0" y1="784" x2="4260" y2="784" stroke="#449FDB" opacity="0.3"></line>
    <line stroke-width="1" x1="0" y1="800" x2="4260" y2="800" stroke="#449FDB" opacity="1"></line>
    <line stroke-width="1" x1="0" y1="816" x2="4260" y2="816" stroke="#449FDB" opacity="0.3"></line>
    <line stroke-width="1" x1="0" y1="832" x2="4260" y2="832" stroke="#449FDB" opacity="1"></line>
    <line stroke-width="1" x1="0" y1="848" x2="4260" y2="848" stroke="#449FDB" opacity="0.3"></line>
    <line stroke-width="1" x1="0" y1="864" x2="4260" y2="864" stroke="#449FDB" opacity="1"></line>
    <line stroke-width="1" x1="0" y1="880" x2="4260" y2="880" stroke="#449FDB" opacity="0.3"></line>
    <line stroke-width="1" x1="0" y1="896" x2="4260" y2="896" stroke="#449FDB" opacity="1"></line>
    <line stroke-width="1" x1="0" y1="912" x2="4260" y2="912" stroke="#449FDB" opacity="0.3"></line>
    <line stroke-width="1" x1="0" y1="928" x2="4260" y2="928" stroke="#449FDB" opacity="1"></line>
    <line stroke-width="1" x1="0" y1="944" x2="4260" y2="944" stroke="#449FDB" opacity="0.3"></line>
    <line stroke-width="1" x1="0" y1="960" x2="4260" y2="960" stroke="#449FDB" opacity="1"></line>
    <line stroke-width="1" x1="0" y1="976" x2="4260" y2="976" stroke="#449FDB" opacity="0.3"></line>
    <line stroke-width="1" x1="0" y1="992" x2="4260" y2="992" stroke="#449FDB" opacity="1"></line>
    <line stroke-width="1" x1="0" y1="1008" x2="4260" y2="1008" stroke="#449FDB" opacity="0.3"></line>
</g>
<path fill="#000" d="M248.48 21.879c0 10.226-18.406 20.451-40.903 20.451s-40.903 8.181-40.903 20.451c0 10.226-18.406 20.451-40.903 20.451s-40.903 8.181-40.903 20.451c0 10.226-18.406 20.451-40.903 20.451-38.858 0-40.903 14.316-40.903 409.027v409.027h153.385c149.295 0 157.475-2.045 224.965-71.58 44.993-42.948 71.58-89.986 71.58-122.708 0-47.038 6.135-51.128 102.257-51.128h102.257v245.416h139.069c114.528 0 143.16-6.135 167.701-40.903 38.858-53.174 102.257-53.174 102.257 0 0 38.858 14.316 40.903 278.138 40.903 286.319 0 335.402-12.271 335.402-89.986 0-18.406 10.226-32.722 20.451-32.722 12.271 0 20.451-14.316 20.451-32.722 0-30.677 47.038-89.986 69.535-89.986 6.135 0 12.271 18.406 12.271 40.903s10.226 40.903 20.451 40.903c12.271 0 20.451 18.406 20.451 40.903s10.226 40.903 20.451 40.903c12.271 0 20.451 18.406 20.451 40.903 0 40.903 14.316 40.903 940.762 40.903h940.762v-81.805c0-44.993 10.226-81.805 20.451-81.805 12.271 0 20.451 18.406 20.451 40.903s10.226 40.903 20.451 40.903c12.271 0 20.451 18.406 20.451 40.903s10.226 40.903 20.451 40.903c12.271 0 20.451 18.406 20.451 40.903 0 38.858 14.316 40.903 184.062 40.903h184.062v-81.805c0-44.993-8.181-81.805-20.451-81.805-10.226 0-20.451-18.406-20.451-40.903s-8.181-40.903-20.451-40.903c-10.226 0-20.451-18.406-20.451-40.903s10.226-40.903 20.451-40.903c12.271 0 20.451-108.392 20.451-286.319 0-272.003-2.045-286.319-40.903-286.319-22.496 0-40.903-10.226-40.903-20.451 0-12.271-18.406-20.451-40.903-20.451s-40.903-10.226-40.903-20.451c0-12.271-18.406-20.451-40.903-20.451s-40.903-10.226-40.903-20.451c0-14.316-321.086-20.451-920.311-20.451h-920.311v102.257c0 55.219-8.181 102.257-20.451 102.257-10.226 0-20.451-18.406-20.451-40.903s-8.181-40.903-20.451-40.903c-10.226 0-20.451-14.316-20.451-32.722 0-59.309-55.219-89.986-163.611-89.986-100.212 0-108.392 4.090-224.965 122.708-65.444 67.489-124.753 122.708-130.889 122.708-8.181 0-12.271-55.219-12.271-122.708v-122.708h-161.566c-110.437 0-165.656 8.181-173.837 24.542-10.226 20.451-14.316 20.451-24.542 0-14.316-30.677-908.040-36.812-908.040-4.090zM1884.589 144.588c0 10.226-8.181 20.451-20.451 20.451-10.226 0-20.451 26.587-20.451 61.354 0 32.722 10.226 61.354 20.451 61.354 12.271 0 20.451 18.406 20.451 40.903s10.226 40.903 20.451 40.903c12.271 0 20.451 18.406 20.451 40.903s10.226 40.903 20.451 40.903c12.271 0 20.451 18.406 20.451 40.903s10.226 40.903 20.451 40.903c12.271 0 20.451 18.406 20.451 40.903s10.226 40.903 20.451 40.903c12.271 0 20.451 18.406 20.451 40.903s10.226 40.903 20.451 40.903c12.271 0 20.451 18.406 20.451 40.903s10.226 40.903 20.451 40.903c12.271 0 20.451 18.406 20.451 40.903 0 34.767-14.316 40.903-102.257 40.903s-102.257-6.135-102.257-40.903c0-22.496-8.181-40.903-20.451-40.903-10.226 0-20.451-18.406-20.451-40.903s-8.181-40.903-20.451-40.903c-10.226 0-20.451-18.406-20.451-40.903s-8.181-40.903-20.451-40.903c-10.226 0-20.451-18.406-20.451-40.903 0-26.587-14.316-40.903-40.903-40.903s-40.903 14.316-40.903 40.903c0 22.496-8.181 40.903-20.451 40.903-10.226 0-20.451 18.406-20.451 40.903s-8.181 40.903-20.451 40.903c-10.226 0-20.451 18.406-20.451 40.903s-8.181 40.903-20.451 40.903c-10.226 0-20.451 18.406-20.451 40.903 0 34.767-14.316 40.903-102.257 40.903s-102.257-6.135-102.257-40.903c0-22.496 10.226-40.903 20.451-40.903 12.271 0 20.451-18.406 20.451-40.903s10.226-40.903 20.451-40.903c12.271 0 20.451-18.406 20.451-40.903s10.226-40.903 20.451-40.903c12.271 0 20.451-18.406 20.451-40.903s10.226-40.903 20.451-40.903c12.271 0 20.451-18.406 20.451-40.903s10.226-40.903 20.451-40.903c12.271 0 20.451-18.406 20.451-40.903s10.226-40.903 20.451-40.903c12.271 0 20.451-18.406 20.451-40.903s10.226-40.903 20.451-40.903c12.271 0 20.451-18.406 20.451-40.903 0-30.677 14.316-40.903 57.264-40.903 32.722 0 69.535-16.361 85.896-40.903 30.677-42.948 61.354-53.174 61.354-20.451zM2886.705 165.039c26.587 36.812 53.174 40.903 290.409 40.903h261.777v163.611h-204.514c-190.198 0-204.514 2.045-204.514 40.903s14.316 40.903 204.514 40.903h204.514v163.611h-204.514c-190.198 0-204.514 2.045-204.514 40.903s14.316 40.903 204.514 40.903h204.514v163.611h-572.638v-347.673c0-218.83-8.181-347.673-20.451-347.673-10.226 0-20.451-10.226-20.451-20.451 0-32.722 30.677-22.496 61.354 20.451zM698.41 185.49c0 10.226-8.181 20.451-20.451 20.451s-20.451 81.805-20.451 204.514v204.514h-143.16c-128.844 0-143.16-4.090-143.16-40.903 0-22.496-8.181-40.903-20.451-40.903-10.226 0-20.451-18.406-20.451-40.903 0-34.767 14.316-40.903 81.805-40.903s81.805-6.135 81.805-40.903c0-36.812-14.316-40.903-122.708-40.903h-122.708v490.833h-163.611v-654.443h286.319c177.927 0 286.319-8.181 286.319-20.451s10.226-20.451 20.451-20.451c12.271 0 20.451 8.181 20.451 20.451zM943.826 185.49c0 10.226-8.181 20.451-20.451 20.451s-20.451 55.219-20.451 122.708v122.708h245.416v-245.416h79.76c44.993 0 83.851-10.226 89.986-26.587 4.090-14.316 16.361-16.361 26.587-6.135s8.181 22.496-6.135 26.587c-20.451 8.181-26.587 94.076-26.587 335.402v325.177h-163.611v-245.416h-245.416v245.416h-163.611v-654.443h81.805c44.993 0 81.805-10.226 81.805-20.451 0-12.271 10.226-20.451 20.451-20.451 12.271 0 20.451 8.181 20.451 20.451zM2252.713 185.49c0 12.271 102.257 20.451 265.868 20.451h265.868v163.611h-143.16c-77.715 0-143.16 4.090-143.16 10.226s65.444 75.67 143.16 153.385c134.979 132.934 143.16 145.205 143.16 235.191v92.031h-572.638v-163.611h163.611c89.986 0 163.611-4.090 163.611-10.226s-73.625-83.851-163.611-173.837c-157.475-155.43-163.611-165.656-163.611-255.642 0-51.128 10.226-92.031 20.451-92.031 12.271 0 20.451 8.181 20.451 20.451zM3561.6 185.49c0 12.271 108.392 20.451 286.319 20.451h286.319v409.027h-61.354c-47.038 0-61.354 8.181-61.354 40.903 0 22.496 10.226 40.903 20.451 40.903 12.271 0 20.451 18.406 20.451 40.903s10.226 40.903 20.451 40.903c12.271 0 20.451 18.406 20.451 40.903s10.226 40.903 20.451 40.903c12.271 0 20.451 18.406 20.451 40.903 0 34.767-14.316 40.903-81.805 40.903s-81.805-6.135-81.805-40.903c0-22.496-8.181-40.903-20.451-40.903-10.226 0-20.451-18.406-20.451-40.903s-8.181-40.903-20.451-40.903c-10.226 0-20.451-18.406-20.451-40.903s-8.181-40.903-20.451-40.903c-10.226 0-20.451-18.406-20.451-40.903s-8.181-40.903-20.451-40.903c-10.226 0-20.451-18.406-20.451-40.903s-8.181-40.903-20.451-40.903c-10.226 0-20.451-18.406-20.451-40.903 0-34.767 14.316-40.903 102.257-40.903s102.257-6.135 102.257-40.903c0-36.812-14.316-40.903-143.16-40.903h-143.16v490.833h-163.611v-347.673c0-218.83 8.181-347.673 20.451-347.673s20.451 8.181 20.451 20.451z"></path>
</svg>
