<!-- Generated by IcoMoon.io -->
<svg version="1.1" xmlns="http://www.w3.org/2000/svg" width="1008" height="1024" viewBox="0 0 1008 1024">
<g id="icomoon-ignore">
</g>
<path fill="#004480" d="M297.659 702.95c2.368 2.683 4.978 5.293 7.466 7.812l7.903 7.661-141.861 171.813c-8.5-7.49-16.224-14.747-23.717-22.269l-0.007-0.007c-7.586-7.527-15.052-15.022-22.050-23.030l171.843-141.965zM356.894 752.359l-105.678 196.576c-20.72-12.12-38.294-23.995-55.054-36.88l1.228 0.909 141.301-173.712c5.987 4.284 11.974 8.249 18.203 12.096zM264.437 659.862c3.741 6.109 7.812 12.216 12.216 18.083l-173.049 140.533c-12.060-15.552-23.939-33.077-34.685-51.367l-1.267-2.356 196.698-105.678zM406.641 776.549l-65.454 212.607c-23.776-8.097-43.464-16.416-62.457-25.925l2.87 1.296 104.698-197.044c6.65 3.061 13.422 5.883 20.225 8.249zM240.217 609.458c2.488 6.803 5.293 13.573 8.372 20.12l-197.044 104.82c-8.372-16.285-16.726-36.006-23.748-56.375l-1.004-3.336zM459.855 789.656l-22.275 222.020c-24.689-3.553-46.17-8.16-67.091-14.084l3.584 0.856 64.414-212.985c7.028 1.704 14.146 3.061 21.387 4.193zM226.326 556.13c1.101 7.24 2.61 14.358 4.284 21.477l-213.738 64.189c-4.886-17.381-9.289-38.805-12.277-60.692l-0.287-2.608zM223.027 501.274v21.928l-222.020 21.582c-0.655-9.669-1.013-20.971-1.013-32.343s0.373-22.674 1.099-33.861l-0.088 1.516zM514.784 792.807l21.477 222.123c-21.582 1.357-43.058 1.357-64.657 0l21.477-222.123c7.24 0.468 14.464 0.468 21.702 0zM569.395 785.463l64.414 213.648c-20.888 5.792-42.049 10.179-63.526 13.227l-22.275-222.020c7.149-1.253 14.389-2.488 21.387-4.162zM230.636 446.437c-1.704 7.118-3.182 14.267-4.313 21.582l-222.020-22.487c3.275-24.441 7.661-45.83 13.382-66.679l-0.817 3.501 213.769 64.189zM621.624 767.484l104.698 197.044c-16.165 8.195-35.938 16.531-56.311 23.564l-3.521 1.046-65.108-213.423c8.697-3.122 15.398-5.916 21.946-8.945l-1.676 0.695zM248.953 393.425c-3.061 6.65-5.897 13.227-8.385 20.255l-213.166-66.044c7.028-20.467 15.4-40.448 25.006-59.784l196.576 105.799zM669.148 739.235l141.167 173.171c-17.194 13.105-35.021 25.098-53.675 35.94l-105.604-196.005c6.109-3.755 12.096-7.691 18.083-12.096zM276.616 346.746c-3.933 5.161-7.964 11.055-11.686 17.162l-0.533 0.938-196.486-105.799c10.873-18.52 22.864-36.512 35.971-53.602zM882.509 844.93c-14.496 16.278-29.451 31.179-45.228 45.173l-0.563 0.478-141.861-172.191 7.903-7.661 7.466-7.812zM171.167 133.567l141.861 171.813-7.903 7.586c-2.488 2.61-5.098 5.203-7.466 7.812l-171.813-141.892c6.998-7.903 14.358-15.837 22.019-23.498 7.691-7.691 15.625-15.157 23.649-22.050zM940.304 764.648c-10.86 18.777-22.833 36.754-35.94 53.828l-172.957-141.301c4.435-5.883 8.475-11.974 12.216-18.083l196.698 105.678zM251.327 75.803l105.799 196.473c-7.661 4.791-13.639 8.821-19.494 13.008l1.169-0.792-141.198-172.732c17.072-13.105 35.051-25.201 53.706-35.94zM981.1 674.658c-8.007 23.688-16.378 43.409-25.986 62.403l1.253-2.709-197.044-104.79c3.061-6.577 5.792-13.348 8.385-20.133zM341.791 34.643l65.003 213.648c-6.923 2.368-13.604 5.203-20.255 8.249l-104.442-197.166c16.093-8.185 35.813-16.538 56.126-23.653l3.585-1.097zM1003.616 578.495c-3.529 24.594-8.132 45.986-14.051 66.838l0.855-3.555-213.105-64.189c1.382-5.256 2.892-12.53 4.094-19.899l0.219-1.608zM437.629 12.369l22.275 222.020c-7.24 1.162-14.358 2.61-21.387 4.193l-64.414-212.985c17.355-5.068 38.835-9.674 60.765-12.888l2.744-0.339zM1006.92 479.815c1.448 21.477 1.448 42.955 0 64.414l-222.020-21.234v-21.928zM536.289 9.065l-21.477 222.123h-21.702l-21.477-222.123c9.667-0.655 20.949-1.013 32.319-1.013s22.652 0.373 33.854 1.099l-1.516-0.088zM990.94 382.371c5.883 20.783 10.302 41.927 13.227 63.283l-222.020 22.487c-1.264-8.717-2.714-16.027-4.506-23.208l0.344 1.61zM634.188 25.565l-64.76 212.985c-4.825-1.23-12.062-2.683-19.367-3.911l-1.988-0.282 22.262-222.020c21.477 2.836 42.621 6.923 63.526 12.442zM726.641 60.178l-105.015 196.473c-5.164-2.552-11.842-5.387-18.675-7.9l-1.548-0.502 65.108-213.392c23.876 8.098 43.65 16.434 62.713 25.929l-2.898-1.316zM956.245 289.86c9.486 19.336 17.735 39.364 24.75 59.693l-213.27 66.119c-2.519-6.772-5.446-13.227-8.505-20.255zM809.959 111.487l-141.513 172.854c-4.851-3.558-10.8-7.586-16.879-11.407l-1.355-0.794 105.709-196.576c18.671 10.739 36.634 22.713 53.828 35.94zM903.774 204.947c13.136 17.072 25.128 34.96 35.971 53.602l-196.351 105.709c-4.374-7.183-8.404-13.132-12.668-18.873l0.468 0.656 172.598-141.393zM836.751 133.537c8.129 6.998 15.837 14.358 23.619 22.050 7.812 7.661 15.052 15.339 22.17 23.498l-171.813 142.087c-2.485-2.809-4.951-5.388-7.53-7.849l-0.056-0.037-7.934-7.691 141.995-171.813z"></path>
</svg>
