<!-- Generated by IcoMoon.io -->
<svg version="1.1" xmlns="http://www.w3.org/2000/svg" width="1024" height="1024" viewBox="0 0 1024 1024">
<g id="icomoon-ignore">
</g>
<path fill="#000" d="M402.89 0.001h218.228c80.351 0 145.484 63.069 145.484 140.867v238.393c0 65.828-55.113 119.193-123.103 119.193h-268.587c-80.351 0-145.488 63.071-145.488 140.87v119.193h-83.935c-80.35 0-145.486-63.067-145.486-140.866v-211.303c0-77.799 65.136-140.867 145.486-140.867h363.716v-27.090h-251.803v-97.523c0-77.799 65.136-140.867 145.487-140.867zM369.317 173.376c27.813 0 50.359-21.832 50.359-48.762s-22.546-48.762-50.359-48.762c-27.816 0-50.362 21.832-50.362 48.762s22.546 48.762 50.362 48.762z"></path>
<path fill="#000" d="M621.111 1023.999h-218.228c-80.347 0-145.486-63.067-145.486-140.866v-238.394c0-65.828 55.113-119.193 123.104-119.193h268.592c80.347 0 145.484-63.067 145.484-140.87v-119.194h83.935c80.351 0 145.484 63.069 145.484 140.866v211.303c0 77.799-65.134 140.87-145.484 140.87h-363.717v27.088h251.805v97.524c0 77.799-65.137 140.866-145.488 140.866zM654.687 850.626c-27.816 0-50.362 21.83-50.362 48.761s22.546 48.761 50.362 48.761c27.813 0 50.359-21.83 50.359-48.761s-22.546-48.761-50.359-48.761z"></path>
</svg>
