<!-- Generated by IcoMoon.io -->
<svg version="1.1" xmlns="http://www.w3.org/2000/svg" width="1151" height="1024" viewBox="0 0 1151 1024">
<g id="icomoon-ignore">
</g>
<path fill="#61dafb" d="M676.031 512.002c0 55.521-45.009 100.53-100.53 100.53s-100.53-45.009-100.53-100.53c0-55.521 45.009-100.53 100.53-100.53s100.53 45.009 100.53 100.53z"></path>
<path fill="none" stroke="#61dafb" stroke-linejoin="miter" stroke-linecap="butt" stroke-miterlimit="4" stroke-width="50.0404" d="M1114.93 512.002c0 113.75-241.511 205.965-539.43 205.965s-539.43-92.211-539.43-205.965c0-113.75 241.511-205.965 539.43-205.965s539.43 92.211 539.43 205.965z"></path>
<path fill="none" stroke="#61dafb" stroke-linejoin="miter" stroke-linecap="butt" stroke-miterlimit="4" stroke-width="50.0404" d="M845.214 979.16c-98.512 56.875-299.125-106.173-448.084-364.178s-189.855-513.268-91.345-570.142c98.512-56.875 299.125 106.173 448.084 364.178s189.855 513.268 91.345 570.142z"></path>
<path fill="none" stroke="#61dafb" stroke-linejoin="miter" stroke-linecap="butt" stroke-miterlimit="4" stroke-width="50.0404" d="M305.784 979.16c-98.512-56.875-57.614-312.136 91.345-570.142s349.572-421.052 448.084-364.178c98.512 56.875 57.614 312.136-91.345 570.142s-349.572 421.052-448.084 364.178z"></path>
</svg>
