<!-- Generated by IcoMoon.io -->
<svg version="1.1" xmlns="http://www.w3.org/2000/svg" width="1024" height="1024" viewBox="0 0 1024 1024">
<g id="icomoon-ignore">
</g>
<path fill="#a41e11" d="M983.814 749.315c-54.656 28.552-337.724 144.389-398.090 176.204s-93.812 30.999-141.126 8.158-348.329-143.574-402.985-169.678c-26.92-13.052-40.788-23.657-40.788-34.262v-103.601s391.564-85.655 455.194-107.68c63.629-22.841 84.839-23.657 138.679-4.079s376.065 77.497 429.089 97.075v101.97c0 10.605-12.236 22.025-39.972 35.893z"></path>
<path fill="#d82c20" d="M983.814 646.529c-54.656 28.552-337.724 144.389-398.090 176.204s-93.812 30.999-141.126 8.158c-47.314-22.841-348.329-144.389-402.985-170.494-53.84-26.104-55.472-44.051-2.447-64.445 53.024-21.21 352.408-138.679 416.037-160.705 63.629-22.841 84.839-23.657 138.679-4.079s335.277 131.337 388.301 150.915c54.656 19.578 56.287 35.893 1.632 64.445z"></path>
<path fill="#a41e11" d="M983.814 581.269c-54.656 28.552-337.724 144.389-398.090 176.204-60.366 30.999-93.812 30.999-141.126 8.158s-348.329-144.389-402.985-170.494c-26.92-13.052-40.788-23.657-40.788-34.262v-103.601s391.564-85.655 455.194-107.68c63.629-22.841 84.839-23.657 138.679-4.079s376.065 77.497 429.089 97.075v101.97c0 10.605-12.236 22.025-39.972 36.709z"></path>
<path fill="#d82c20" d="M983.814 477.667c-54.656 28.552-337.724 144.389-398.090 176.204-60.366 30.999-93.812 30.999-141.126 8.158s-348.329-144.389-402.985-170.494-55.472-44.051-2.447-64.445c53.024-21.21 352.408-138.679 416.037-160.705 63.629-22.841 84.839-23.657 138.679-4.079s335.277 131.337 388.301 150.915c54.656 19.578 56.287 35.893 1.632 64.445z"></path>
<path fill="#a41e11" d="M983.814 405.88c-54.656 28.552-337.724 144.389-398.090 176.204-60.366 30.999-93.812 30.999-141.126 8.158-47.314-22.025-348.329-143.574-402.985-169.678-26.92-13.052-41.604-23.657-41.604-34.262v-103.601s391.564-85.655 455.194-107.68c63.629-22.841 84.839-23.657 138.679-4.079s376.065 77.497 429.089 97.075v101.97c0.816 10.605-11.421 21.21-39.156 35.893z"></path>
<path fill="#d82c20" d="M983.814 302.279c-54.656 28.552-337.724 144.389-398.090 176.204-60.366 30.999-93.812 30.999-141.126 8.158s-348.329-143.574-402.985-169.678-55.472-44.051-2.447-64.445c53.024-21.21 352.408-138.679 416.037-160.705 63.629-22.841 84.839-23.657 138.679-4.079s335.277 131.337 388.301 150.915c54.656 19.578 56.287 35.893 1.632 63.629z"></path>
<path fill="#fff" d="M646.089 202.756l-88.102 9.789-20.394 47.314-31.815-53.024-101.97-8.973 75.866-27.736-22.841-42.419 71.787 27.736 66.892-22.025-17.947 44.051zM532.699 434.432l-165.599-68.524 237.386-35.893z"></path>
<path fill="#fff" d="M429.913 278.622c0 27.032-56.611 48.946-126.443 48.946s-126.443-21.913-126.443-48.946c0-27.032 56.611-48.946 126.443-48.946s126.443 21.913 126.443 48.946z"></path>
<path fill="#7a0c00" d="M751.322 215.808l140.311 55.472-140.311 55.472z"></path>
<path fill="#ad2115" d="M596.328 277.806l154.994-61.998v110.943l-15.499 6.526z"></path>
</svg>
