<!-- Generated by IcoMoon.io -->
<svg version="1.1" xmlns="http://www.w3.org/2000/svg" width="1024" height="1024" viewBox="0 0 1024 1024">
<g id="icomoon-ignore">
</g>
<path fill="#6cb52d" d="M932.441 59.35c-14.71 35.765-33.734 67.472-54.787 95.882-92.838-94.614-222.713-154.731-366.029-154.731-281.559 0-511.625 228.799-511.625 511.372 0 147.629 63.161 280.544 163.356 374.397l19.024 16.997c88.525 74.827 203.686 120.232 328.992 120.232 268.877 0 490.319-209.773 509.343-474.59 15.221-128.605-23.843-293.227-88.272-489.558zM237.425 890.583c-14.712 19.026-42.11 21.055-61.131 6.341-19.026-14.712-21.055-42.106-6.343-61.131s42.108-21.055 61.131-6.341c18.009 14.712 21.055 42.108 6.343 61.131zM929.401 737.628c-125.562 167.667-395.452 110.847-567.431 119.217 0 0-30.692 2.029-61.131 6.343 0 0 11.669-5.326 26.379-10.654 121.248-42.106 178.323-50.731 252.136-88.525 138.243-70.771 276.233-225.757 303.881-386.067-52.762 153.97-213.072 286.887-358.672 340.663-100.193 37.033-280.544 72.798-280.544 72.798l-7.355-4.311c-122.263-60.117-126.574-325.949 97.15-411.432 98.166-38.047 191.005-16.997 297.541-42.108 112.877-26.379 243.764-110.847 296.271-221.442 58.594 178.321 130.379 454.554 1.776 625.518z"></path>
<path fill="#fff" d="M237.423 890.583c-14.712 19.026-42.11 21.055-61.131 6.341-19.026-14.712-21.055-42.106-6.343-61.131s42.108-21.055 61.131-6.341c18.009 14.712 21.055 42.108 6.343 61.131zM929.399 737.628c-125.562 167.667-395.452 110.847-567.431 119.217 0 0-30.692 2.029-61.131 6.343 0 0 11.669-5.326 26.379-10.654 121.248-42.106 178.323-50.731 252.136-88.525 138.243-70.771 276.233-225.757 303.881-386.067-52.762 153.97-213.072 286.887-358.672 340.663-100.193 37.033-280.544 72.798-280.544 72.798l-7.355-4.311c-122.263-60.117-126.574-325.949 97.15-411.432 98.166-38.047 191.005-16.997 297.541-42.108 112.877-26.379 243.764-110.847 296.271-221.442 58.594 178.321 130.379 454.554 1.776 625.518z"></path>
</svg>
