<!-- Generated by IcoMoon.io -->
<svg version="1.1" xmlns="http://www.w3.org/2000/svg" width="1024" height="1024" viewBox="0 0 1024 1024">
<g id="icomoon-ignore">
</g>
<path fill="#000" d="M956.085 516.829l65.635-111.179c2.636-5.545 3-11.909 1-17.636l-129.997-372.356c-4-11.363-15.909-17.818-27.454-15l-382.083 93.089c-7.273 1.818-13.272 7-16.091 14l-40.635 101.725h-123.906c-6.454 0-12.727 2.727-17.091 7.454l-279.267 302.539c-8.636 9.363-8.182 23.909 1 32.636l292.903 279.267c4.273 4.182 10.091 6.454 16 6.454h133.543l40.726 101.725c3 7.545 9.727 12.909 17.636 14.272l406.355 69.817c1.273 0.273 2.636 0.364 3.909 0.364 10.818 0 20.363-7.454 22.727-18.272l82.453-377.719c1.273-5.818 0.273-11.909-2.909-17.091zM426.46 209.472l327.993-60.090-172.633 339.356h-391.719zM449.733 837.822l-259.631-255.994h391.719l203.632 306.448zM870.087 835.459l-195.178-300.175 170.633-339.356 110.543 320.993z"></path>
</svg>
