<!-- Generated by IcoMoon.io -->
<svg version="1.1" xmlns="http://www.w3.org/2000/svg" width="1024" height="1024" viewBox="0 0 1024 1024">
<g id="icomoon-ignore">
</g>
<path fill="#000" d="M0 495.611v-1.417c12.842-165.663 72.846-289.921 177.088-368.479 102.825-79.975 214.242-118.546 335.621-118.546 127.092-1.417 245.638 41.404 351.342 127.092 107.121 84.271 159.95 209.946 159.95 372.729v10.008c0 164.246-52.829 287.042-159.95 371.313-107.121 85.688-225.667 128.554-352.758 128.554h-5.713c-124.258-1.417-238.508-44.283-344.167-129.971-105.704-84.271-159.95-214.242-161.367-391.329zM481.266 271.407v-225.667h-34.275c-7.129 8.592-12.842 18.554-18.554 27.146s-11.425 17.138-17.138 27.146c-5.713 8.592-12.842 20.017-17.138 28.563-5.713 8.592-10.008 17.138-14.304 27.146-8.592 14.304-15.721 28.563-21.433 41.404-7.129 12.842-12.842 25.729-17.138 37.154 8.592 5.713 18.554 12.842 29.979 17.138 12.842 4.296 25.729 8.592 38.571 11.425 14.304 2.879 27.146 4.296 38.571 5.713 12.842 1.417 24.267 2.879 32.858 2.879zM541.27 45.786v224.204c7.129 0 15.721 1.417 24.267 0 8.592 0 18.554-1.417 27.146-2.879 15.721-2.879 34.275-7.129 48.579-11.425 15.721-5.713 29.979-12.842 39.988-21.433-17.138-41.404-35.692-74.263-54.292-105.704s-39.988-58.542-62.838-81.392v-1.417h-22.85zM387.032 58.628v-1.417c-10.008 4.296-20.017 11.425-31.442 15.721-10.008 4.296-22.85 10.008-32.858 15.721-20.017 10.008-39.988 21.433-60.004 34.275-18.554 12.842-37.154 27.146-52.829 41.404 5.713 5.713 12.842 11.425 18.554 15.721s12.842 10.008 20.017 15.721c5.713 2.879 12.842 7.129 20.017 12.842 7.129 4.296 15.721 10.008 24.267 15.721 11.425-25.729 22.85-52.829 37.154-77.142 14.304-25.729 29.979-49.996 45.7-71.429 1.417-2.879 2.879-5.713 5.713-8.592 1.417-1.417 2.879-5.713 5.713-8.592zM824.016 164.286v-1.417c-35.692-27.146-67.133-49.996-98.529-64.254s-62.838-28.563-91.4-39.988c22.85 22.85 42.867 51.413 55.708 78.558 14.304 28.563 28.563 58.542 39.988 87.104 5.713-2.879 12.842-5.713 21.433-11.425 7.129-4.296 17.138-8.592 25.729-12.842 8.592-5.713 15.721-11.425 24.267-17.138 8.592-7.129 17.138-12.842 22.85-18.554zM799.749 482.769h164.246c0-52.829-11.425-102.825-32.858-154.238-20.017-49.996-48.579-91.4-84.271-127.092v-1.417c-7.129 11.425-17.138 21.433-27.146 28.563-11.425 7.129-21.433 12.842-32.858 18.554-7.129 4.296-14.304 10.008-21.433 12.842-7.129 4.296-17.138 7.129-24.267 11.425 5.713 11.425 11.425 24.267 17.138 35.692 4.296 12.842 11.425 27.146 14.304 39.988 8.592 22.85 14.304 47.117 20.017 71.429 4.296 21.433 7.129 44.283 7.129 64.254zM282.791 271.407v-1.417c-11.425-5.713-24.267-10.008-34.275-15.721-10.008-7.129-20.017-14.304-28.563-20.017-8.592-4.296-17.138-10.008-24.267-15.721s-12.842-11.425-18.554-17.138c-37.154 35.692-64.254 75.679-81.392 122.842-18.554 47.117-31.442 99.992-37.154 157.117h175.671c0-39.988 5.713-78.558 15.721-117.129 8.592-39.988 21.433-69.967 32.858-92.817zM481.266 481.353v-164.246c-11.425 1.417-25.729 1.417-38.571 0-14.304-1.417-28.563-5.713-41.404-10.008-11.425-2.879-25.729-5.713-37.154-10.008-12.842-2.879-25.729-8.592-35.692-14.304-8.592 14.304-15.721 31.442-21.433 49.996-7.129 17.138-11.425 35.692-15.721 52.829-2.879 17.138-4.296 35.692-5.713 51.413s-2.879 31.442-2.879 44.283h198.521zM541.27 319.986v161.367h211.363c0-8.592 0-18.554-1.417-29.979-2.879-10.008-4.296-22.85-5.713-34.275-4.296-17.138-8.592-35.692-14.304-52.829-5.713-15.721-11.425-31.442-18.554-44.283-2.879-7.129-5.713-15.721-8.592-21.433-4.296-7.129-8.592-11.425-11.425-15.721-15.721 11.425-37.154 18.554-62.838 24.267-24.267 5.713-52.829 11.425-78.558 12.842h-10.008zM234.211 528.47h-175.671c0 24.267 4.296 51.413 11.425 84.271 7.129 34.275 21.433 65.717 37.154 99.992 7.129 17.138 15.721 34.275 24.267 51.413 10.008 15.721 21.433 32.858 32.858 48.579 8.592-5.713 17.138-10.008 24.267-14.304 8.592-4.296 18.554-10.008 27.146-14.304 10.008-4.296 20.017-8.592 31.442-14.304 10.008-4.296 22.85-10.008 35.692-15.721-11.425-35.692-24.267-69.967-32.858-108.538-10.008-37.154-15.721-74.263-15.721-115.667v-1.417zM481.266 695.549v-167.079h-198.521c0 11.425 1.417 28.563 4.296 45.7 1.417 17.138 5.713 35.692 8.592 54.292 5.713 20.017 10.008 39.988 15.721 57.125s11.425 31.442 17.138 44.283c25.729-10.008 51.413-17.138 68.55-21.433 18.554-5.713 35.692-10.008 52.829-11.425h15.721c5.713-1.417 11.425-1.417 15.721-1.417zM541.27 528.47v165.663c10.008 1.417 21.433 2.879 32.858 4.296 12.842 1.417 28.563 4.296 41.404 7.129l21.433 4.296c7.129 2.879 15.721 4.296 22.85 5.713 8.592 2.879 17.138 4.296 25.729 7.129 7.129 2.879 14.304 4.296 20.017 7.129 18.554-47.117 29.979-85.688 37.154-118.546 7.129-31.442 10.008-58.542 10.008-81.392v-1.417h-211.363zM963.995 529.886v-1.417h-164.246v8.592c-1.417 27.146-5.713 58.542-11.425 91.4-5.713 31.442-18.554 68.55-35.692 114.25 22.85 11.425 44.283 22.85 61.421 34.275s32.858 24.267 44.283 35.692c24.267-24.267 45.7-57.125 64.254-99.992 18.554-41.404 31.442-84.271 38.571-129.971 1.417-8.592 1.417-17.138 2.879-25.729v-27.146zM481.266 964.036v-222.788c-35.692 5.713-65.717 12.842-88.567 18.554s-39.988 11.425-51.413 17.138c8.592 21.433 17.138 39.988 25.729 57.125 8.592 15.721 18.554 32.858 27.146 47.117 2.879 5.713 8.592 11.425 12.842 18.554 4.296 5.713 7.129 12.842 11.425 18.554 4.296 7.129 8.592 15.721 12.842 24.267 5.713 7.129 10.008 15.721 15.721 21.433h34.275zM541.27 964.036h32.858c12.842-10.008 25.729-24.267 35.692-39.988 11.425-15.721 24.267-34.275 32.858-49.996 10.008-18.554 20.017-35.692 28.563-52.829s15.721-32.858 21.433-44.283c-15.721-5.713-37.154-11.425-58.542-17.138s-51.413-11.425-92.817-17.138v221.371zM824.016 846.953v-1.417c-2.879-4.296-8.592-10.008-12.842-14.304s-11.425-10.008-18.554-14.304c-5.713-4.296-12.842-8.592-21.433-12.842s-20.017-10.008-29.979-15.721c-5.713 11.425-15.721 31.442-29.979 58.542-12.842 27.146-35.692 60.004-64.254 95.696 35.692-5.713 67.133-18.554 95.696-35.692 31.442-15.721 58.542-37.154 81.392-60.004zM292.753 801.253v-1.417c-10.008 5.713-25.729 12.842-41.404 20.017-17.138 7.129-35.692 15.721-52.829 27.146 10.008 8.592 20.017 17.138 28.563 22.85 8.592 7.129 18.554 12.842 27.146 18.554 15.721 10.008 34.275 20.017 52.829 28.563s41.404 17.138 69.967 25.729c-10.008-11.425-17.138-25.729-24.267-37.154s-15.721-22.85-22.85-34.275-12.842-24.267-18.554-35.692c-7.129-11.425-12.842-22.85-18.554-34.275z"></path>
</svg>
